<svg xmlns="http://www.w3.org/2000/svg" xmlns:xlink="http://www.w3.org/1999/xlink" xmlns:lucid="lucid" width="4163.22" height="3304.6"><g transform="translate(0 0)" lucid:page-tab-id="ZCRzvPak~rVC"><path d="M0 0h4163.22v3304.6H0z" fill="#fff"/><path d="M400 1051.05h420v751.87H400z" fill="#147eba" fill-opacity=".13"/><path d="M400 1051.05h56v56h-56v-56z" stroke="#fff" stroke-opacity="0" fill="#147eba"/><path d="M443.38 1073.23c-.15-.17-.34-.25-.56-.25h-5.15v-5.58c-.03-2.53-.97-4.7-2.84-6.4-1.9-1.83-4.15-2.75-6.77-2.75-2.65 0-4.9.83-6.8 2.62-1.9 1.7-2.87 3.87-2.9 6.4v5.67h-5.15c-.24 0-.43.08-.58.25-.16.15-.22.32-.22.57v25.3c0 .4.34.78.8.78h29.6c.46 0 .8-.37.8-.8v-25.28c0-.2-.06-.38-.22-.54zm-23.46-5.9c.03-2.13.8-3.88 2.37-5.3 1.6-1.5 3.52-2.2 5.73-2.2 2.22 0 4.12.75 5.7 2.25 1.54 1.4 2.32 3.2 2.32 5.32v5.58H419.9zm22.1 30.94h-28.03v-23.7h28z" stroke="#fff" stroke-opacity="0" fill="#fff"/><path d="M427.2 1088.36v6.24h1.6v-6.22c2.13-.4 3.62-2.2 3.63-4.36 0-2.43-1.97-4.4-4.4-4.42-2.2-.03-4.06 1.5-4.44 3.67-.42 2.4 1.2 4.68 3.6 5.1zm.82-7.16c.78 0 1.44.27 2 .83.54.55.82 1.2.8 2 .03 1.54-1.2 2.8-2.74 2.8h-.06c-1.56.13-2.92-1.04-3.04-2.6-.12-1.56 1.05-2.92 2.6-3.03h.44z" stroke="#fff" stroke-opacity="0" fill="#fff"/><use xlink:href="#a" transform="matrix(1,0,0,1,471,1071.0519379195935) translate(0 12.444444444444446)"/><use xlink:href="#b" transform="matrix(1,0,0,1,471,1071.0519379195935) translate(56.129629629629626 12.444444444444446)"/><use xlink:href="#c" transform="matrix(1,0,0,1,471,1071.0519379195935) translate(90.5679012345679 12.444444444444446)"/><use xlink:href="#d" transform="matrix(1,0,0,1,471,1071.0519379195935) translate(147.4320987654321 12.444444444444446)"/><path d="M220 851.53h2160V2162.9H220z" stroke="#248814" stroke-width="2" fill="#fff" fill-opacity="0"/><path d="M220 851.53h56v56h-56v-56z" stroke="#fff" stroke-opacity="0" fill="#248814"/><path d="M251.76 879.83h-1.18v-1.1c-.12-1.73-1.48-3.08-3.2-3.2-1.9-.13-3.54 1.3-3.67 3.2v1.07h-1.17c-.44 0-.8.36-.8.8v6.12c0 .45.36.8.8.8h9.23c.44 0 .8-.35.8-.8v-6.08c0-.45-.36-.8-.8-.8zm-6.4-1.07c.1-1.02 1-1.76 2-1.66.9.08 1.58.76 1.67 1.66v1.07h-3.72zm5.65 7.1h-7.67v-4.43h7.63z" stroke="#fff" stroke-opacity="0" fill="#fff"/><path d="M262.27 877.27c-.08-2.44-1.58-4.47-3.87-5.3-1.58-.46-3.16-.13-4.4.9-.68-1.45-1.47-2.6-2.6-3.75-3.24-3.35-7.94-4.28-12.18-2.4-4.04 1.9-6.4 5.64-6.54 10.06v.7c-3.4.97-5.66 4.07-5.5 7.64v.64c.38 4.28 3.92 7.52 8.2 7.46h26s7.42-.63 7.42-8.1c.04-3.9-2.66-7.2-6.53-7.85zm-.96 14.4h-25.9c-3.47.04-6.3-2.54-6.6-5.97v-.52c-.15-3.05 1.93-5.7 4.92-6.3.38-.13.63-.48.6-.9-.06-.4-.06-.74 0-1.15.07-3.8 2.1-6.94 5.52-8.6 1.25-.57 2.4-.8 3.83-.84 2.62.07 4.87 1.03 6.7 2.93 1.25 1.3 2.04 2.6 2.62 4.3.03.14.1.28.24.36.37.27.87.2 1.12-.17.83-1.18 2.25-1.68 3.62-1.3 1.8.72 2.87 2.4 2.83 4.32-.07.4.22.82.64.9 3.57.36 6.2 3.55 5.82 7.12-.3 3.13-2.7 5.5-5.82 5.84z" stroke="#fff" stroke-opacity="0" fill="#fff"/><use xlink:href="#e" transform="matrix(1,0,0,1,291,871.5276090605331) translate(0 12.444444444444446)"/><use xlink:href="#f" transform="matrix(1,0,0,1,291,871.5276090605331) translate(0 31.111111111111118)"/><path d="M400 881.84h420V1032H400z" fill="#248814" fill-opacity=".13"/><path d="M400 881.84h56v56h-56v-56z" stroke="#fff" stroke-opacity="0" fill="#248814"/><path d="M443.38 904.02c-.15-.17-.34-.25-.56-.25h-5.15v-5.58c-.03-2.54-.97-4.7-2.84-6.4-1.9-1.84-4.15-2.76-6.77-2.76-2.65 0-4.9.83-6.8 2.62-1.9 1.7-2.87 3.87-2.9 6.4v5.67h-5.15c-.24 0-.43.08-.58.25-.16.16-.22.33-.22.58v25.3c0 .4.34.78.8.78h29.6c.46 0 .8-.37.8-.8v-25.28c0-.2-.06-.38-.22-.54zm-23.46-5.9c.03-2.13.8-3.88 2.37-5.3 1.6-1.5 3.52-2.2 5.73-2.2 2.22 0 4.12.75 5.7 2.25 1.54 1.4 2.32 3.2 2.32 5.32v5.57H419.9zm22.1 30.94h-28.03v-23.7h28z" stroke="#fff" stroke-opacity="0" fill="#fff"/><path d="M427.2 919.15v6.24h1.6v-6.24c2.13-.38 3.62-2.2 3.63-4.35 0-2.42-1.97-4.4-4.4-4.4-2.2-.04-4.06 1.5-4.44 3.66-.42 2.4 1.2 4.7 3.6 5.1zm.82-7.16c.78 0 1.44.26 2 .82.54.55.82 1.2.8 2 .03 1.54-1.2 2.8-2.74 2.8h-.06c-1.56.13-2.92-1.04-3.04-2.6-.12-1.56 1.05-2.92 2.6-3.03.16-.02.3-.02.44 0z" stroke="#fff" stroke-opacity="0" fill="#fff"/><use xlink:href="#g" transform="matrix(1,0,0,1,471,901.841689038089) translate(0 12.444444444444446)"/><use xlink:href="#h" transform="matrix(1,0,0,1,471,901.841689038089) translate(50.901234567901234 12.444444444444446)"/><use xlink:href="#d" transform="matrix(1,0,0,1,471,901.841689038089) translate(112.08641975308642 12.444444444444446)"/><path d="M400 1822.9h420v300H400z" fill="#147eba" fill-opacity=".13"/><path d="M400 1822.9h56v56h-56v-56z" stroke="#fff" stroke-opacity="0" fill="#147eba"/><path d="M443.38 1845.1c-.15-.18-.34-.26-.56-.26h-5.15v-5.57c-.03-2.54-.97-4.7-2.84-6.4-1.9-1.84-4.15-2.75-6.77-2.75-2.65 0-4.9.83-6.8 2.62-1.9 1.7-2.87 3.86-2.9 6.4v5.66h-5.15c-.24 0-.43.08-.58.25-.16.17-.22.33-.22.58v25.3c0 .4.34.78.8.78h29.6c.46 0 .8-.36.8-.78v-25.3c0-.2-.06-.36-.22-.53zm-23.46-5.92c.03-2.12.8-3.87 2.37-5.28 1.6-1.5 3.52-2.2 5.73-2.2 2.22 0 4.12.74 5.7 2.24 1.54 1.42 2.32 3.2 2.32 5.33v5.57H419.9zm22.1 30.95h-28.03v-23.7h28z" stroke="#fff" stroke-opacity="0" fill="#fff"/><path d="M427.2 1860.22v6.25h1.6v-6.23c2.13-.4 3.62-2.2 3.63-4.35 0-2.45-1.97-4.43-4.4-4.44-2.2-.03-4.06 1.5-4.44 3.68-.42 2.4 1.2 4.68 3.6 5.08zm.82-7.16c.78 0 1.44.28 2 .83.54.54.82 1.2.8 2 .03 1.53-1.2 2.8-2.74 2.8h-.06c-1.56.13-2.92-1.04-3.04-2.6-.12-1.56 1.05-2.93 2.6-3.04h.44z" stroke="#fff" stroke-opacity="0" fill="#fff"/><use xlink:href="#a" transform="matrix(1,0,0,1,471,1842.9150223713061) translate(0 12.444444444444446)"/><use xlink:href="#i" transform="matrix(1,0,0,1,471,1842.9150223713061) translate(56.129629629629626 12.444444444444446)"/><use xlink:href="#c" transform="matrix(1,0,0,1,471,1842.9150223713061) translate(82.83333333333333 12.444444444444446)"/><use xlink:href="#d" transform="matrix(1,0,0,1,471,1842.9150223713061) translate(139.69753086419752 12.444444444444446)"/><path d="M1061.23 1822.9h420v300h-420z" fill="#147eba" fill-opacity=".13"/><path d="M1061.23 1822.9h56v56h-56v-56z" stroke="#fff" stroke-opacity="0" fill="#147eba"/><path d="M1104.6 1845.1c-.15-.18-.33-.26-.55-.26h-5.15v-5.57c-.03-2.54-.97-4.7-2.84-6.4-1.9-1.84-4.15-2.75-6.77-2.75-2.66 0-4.9.83-6.8 2.62-1.92 1.7-2.88 3.86-2.9 6.4v5.66h-5.16c-.25 0-.44.08-.6.25-.15.17-.2.33-.2.58v25.3c0 .4.33.78.8.78h29.58c.46 0 .8-.36.8-.78v-25.3c0-.2-.06-.36-.2-.53zm-23.45-5.92c.03-2.12.8-3.87 2.37-5.28 1.62-1.5 3.52-2.2 5.74-2.2 2.2 0 4.12.74 5.7 2.24 1.54 1.42 2.32 3.2 2.32 5.33v5.57h-16.17zm22.08 30.95h-28v-23.7h28z" stroke="#fff" stroke-opacity="0" fill="#fff"/><path d="M1088.42 1860.22v6.25h1.6v-6.23c2.13-.4 3.63-2.2 3.64-4.35 0-2.45-1.98-4.43-4.42-4.44-2.2-.03-4.05 1.5-4.42 3.68-.4 2.4 1.2 4.68 3.6 5.08zm.82-7.16c.8 0 1.44.28 2 .83.55.54.83 1.2.82 2 0 1.53-1.2 2.8-2.75 2.8h-.06c-1.56.13-2.92-1.04-3.03-2.6-.1-1.56 1.06-2.93 2.62-3.04h.42z" stroke="#fff" stroke-opacity="0" fill="#fff"/><use xlink:href="#a" transform="matrix(1,0,0,1,1132.2261114443177,1842.9150223713061) translate(0 12.444444444444446)"/><use xlink:href="#i" transform="matrix(1,0,0,1,1132.2261114443177,1842.9150223713061) translate(56.129629629629626 12.444444444444446)"/><use xlink:href="#c" transform="matrix(1,0,0,1,1132.2261114443177,1842.9150223713061) translate(82.83333333333333 12.444444444444446)"/><use xlink:href="#j" transform="matrix(1,0,0,1,1132.2261114443177,1842.9150223713061) translate(139.69753086419752 12.444444444444446)"/><path d="M420 1331.53h1700v191.38H420z" fill="#fff" fill-opacity="0"/><path d="M432.03 1331.53h8.02m8.02 0h8m8.03 0h8.02m8.02 0h8.02m8.02 0h8.02m8.02 0h8.02m8 0h8.03m8.02 0h8m8.03 0h8.02m8.02 0h8.02m8 0h8.02m8.02 0h8.02m8.02 0h8.02m8.02 0h8.02m8.02 0h8.02m8 0h8.03m8.03 0h8.02m8.02 0h8.02m8 0h8.03m8 0h8.03m8.02 0h8.02m8.02 0h8.02m8.02 0h8.02m8.02 0h8m8.03 0h8.02m8.02 0H841m8 0h8.03m8.02 0h8.02m8 0h8.03m8.02 0h8.02m8.02 0h8.02m8.02 0h8.02m8.02 0h8m8.03 0h8.02m8 0h8.03m8.02 0h8.02m8.02 0h8m8.02 0h8.02m8.02 0h8.02m8.02 0h8.02m8.02 0h8.02m8.02 0h8m8.03 0h8.03m8.02 0h8.02m8.02 0h8m8.03 0h8m8.03 0h8.02m8.02 0h8.02m8.02 0h8.02m8.02 0h8.02m8 0h8.03m8.02 0h8.02m8.02 0h8m8.03 0h8.02m8.02 0h8.02m8 0h8.02m8.02 0h8.02m8.02 0h8.02m8.02 0h8.02m8.02 0h8m8.03 0h8m8.03 0h8.02m8.02 0h8.02m8 0h8.02m8.02 0h8.02m8.02 0h8.02m8.02 0h8.02m8.02 0h8.02m8 0h8.03m8.03 0h8.02m8.02 0h8.02m8 0h8.03m8 0h8.03m8.02 0h8.02m8.02 0h8.02m8.02 0h8.02m8.02 0h8m8.03 0h8.02m8.02 0h8.02m8 0h8.03m8.02 0h8.02m8.02 0h8m8.02 0h8.02m8.02 0h8.02m8.02 0h8.02m8.02 0h8.02m8 0h8.03m8 0h8.03m8.02 0h8.02m8.02 0h8m8.02 0h8.02m8.02 0h8.02m8.02 0h8.02m8.02 0h8.02m8.02 0h8m8.03 0h8.03m8.02 0h8.02m8.02 0h8m8.03 0h8m8.03 0h8.02m8.02 0h8.02m8.02 0h8.02m8.02 0h8.02m8 0h8.03m8.02 0h8.02m8.02 0h4v4m0 7.96v7.96m0 7.98v7.97m0 8v7.96m0 7.98v7.97m0 8v7.96m0 7.97v7.98m0 7.98v7.98m0 7.97v7.98m0 7.98v7.98m0 7.97v7.97m0 7.98v7.97m0 7.98v3.98h-4m-8.03 0h-8.02m-8.02 0h-8m-8.03 0h-8.02m-8.02 0h-8.02m-8.02 0h-8.02m-8.02 0h-8.02m-8.02 0h-8m-8.03 0h-8m-8.03 0h-8.02m-8.02 0h-8.02m-8 0h-8.02m-8.02 0h-8.02m-8.02 0h-8.02m-8.02 0h-8.02m-8.02 0h-8.02m-8 0h-8.03m-8.03 0h-8.02m-8.02 0h-8.02m-8 0h-8.03m-8 0h-8.03m-8.02 0h-8.02m-8.02 0h-8.02m-8.02 0h-8.02m-8.02 0h-8m-8.03 0h-8.02m-8.02 0H1699m-8 0h-8.03m-8.02 0h-8.02m-8.02 0h-8m-8.02 0h-8.02m-8.02 0h-8.02m-8.02 0h-8.02m-8.02 0h-8.02m-8 0h-8.03m-8 0h-8.03m-8.02 0h-8.02m-8.02 0h-8m-8.02 0h-8.02m-8.02 0h-8.02m-8.02 0h-8.02m-8.02 0h-8.02m-8.02 0h-8m-8.03 0h-8.03m-8.02 0h-8.02m-8.02 0h-8m-8.03 0h-8m-8.03 0h-8.02m-8.02 0h-8.02m-8.02 0h-8.02m-8.02 0h-8.02m-8 0h-8.03m-8.02 0h-8.02m-8.02 0h-8m-8.03 0h-8.02m-8.02 0h-8.02m-8 0h-8.02m-8.02 0h-8.02m-8.02 0h-8.02m-8.02 0h-8.02m-8.02 0h-8m-8.03 0h-8m-8.03 0h-8.02m-8.02 0h-8.02m-8 0h-8.02m-8.02 0h-8.02m-8.02 0h-8.02m-8.02 0h-8.02m-8.02 0h-8.02m-8 0h-8.03m-8.03 0h-8.02m-8.02 0h-8.02m-8 0h-8.03m-8 0h-8.03m-8.02 0h-8.02m-8.02 0h-8.02m-8.02 0h-8.02m-8.02 0h-8m-8.03 0h-8.02m-8.02 0H849m-8 0h-8.03m-8.02 0h-8.02m-8 0h-8.03m-8.02 0h-8.02m-8.02 0h-8.02m-8.02 0h-8.02m-8.02 0h-8m-8.03 0h-8.02m-8 0h-8.03m-8.02 0h-8.02m-8.02 0h-8m-8.02 0h-8.02m-8.02 0h-8.02m-8.02 0h-8.02m-8.02 0h-8.02m-8.02 0h-8m-8.03 0h-8.03m-8.02 0h-8.02m-8.02 0h-8m-8.03 0h-8m-8.03 0h-8.02m-8.02 0h-8.02m-8.02 0h-8.02m-8.02 0h-8.02m-8.02 0h-8m-8.03 0h-8.02m-8.02 0h-4v-3.97m0-7.98v-7.97m0-7.98v-7.97m0-7.97v-7.98m0-7.97v-7.97m0-7.97v-7.98m0-7.97v-7.97m0-7.97v-7.97m0-8v-7.96m0-7.98v-7.97m0-8v-7.96m0-7.98v-7.97m0-7.98v-4h4" stroke="#d86613" stroke-width="2" fill="none"/><path d="M420 1331.53h56v56h-56v-56z" stroke="#fff" stroke-opacity="0" stroke-width="2" fill="#d86613"/><path d="M438.5 1358.7c.07.07.1.13.2.17.1.1.2.2.33.28l.1.06c.1.07.24.13.36.2l.22.1h.18l.18.08c.35.13.73.28 1.17.42l.7.2.34.1c1.96.47 3.67.68 5.7.66 3.07.06 5.7-.44 8.5-1.63 1.22-.56 1.93-1.66 1.95-3v-10.7c0-.47-.25-.87-.67-1.08l-9.28-4.3c-.3-.18-.67-.18-.98 0l-9.3 4.3c-.42.2-.67.6-.67 1.07v10.75c0 .84.27 1.55.8 2.2.05.06.1.1.16.14zm3.8.1l-.6-.17-1.06-.36-.27-.12-.25-.1c-.08-.05-.17-.1-.25-.13l-.2-.15-.07-.1-.07-.07-.06-.06c-.3-.35-.44-.73-.44-1.2v-9.83l8.22 3.87v9.13c-1.63-.02-3-.2-4.6-.58zm13.6-.78c-2.38 1.02-4.58 1.48-7.17 1.5v-9l8.22-3.75v9.56c.02.75-.38 1.38-1.05 1.7zm-7.9-16.38l8.26 3.85-8.13 3.64-.05-.04-8.02-3.73z" stroke="#fff" stroke-opacity="0" stroke-width="2" fill="#fff"/><path d="M460.9 1352.2l-.4 1.42c3.34 1 5.44 2.4 5.44 3.67 0 2.46-7.38 5.22-17.94 5.22-10.56 0-17.94-2.76-17.94-5.23 0-1.28 2.1-2.68 5.44-3.67l-.4-1.44c-4.18 1.22-6.5 3.04-6.5 5.1 0 4.35 10 6.7 19.4 6.7 9.4 0 19.4-2.36 19.4-6.7 0-2.06-2.32-3.86-6.5-5.1zM460.85 1366.36l-3.47-1.5c-.28-.13-.56-.13-.84 0l-3.55 1.53v-.02c-.34.17-.5.47-.5.83v3.86l-3.34-1.45c-.28-.13-.56-.13-.83 0l-3.35 1.46v-3.87c0-.38-.2-.7-.53-.84l-3.5-1.5c-.26-.13-.56-.13-.84 0l-3.54 1.53v-.02c-.33.17-.5.47-.5.83v4.55c0 .38.2.7.55.85l3.48 1.5h.08c.13.04.23.07.38.07.13 0 .25-.02.36-.1l3.37-1.43v3.85c0 .36.2.67.53.83l3.47 1.5h.06c.12.05.25.08.4.08.13 0 .25-.02.38-.07l3.56-1.53c.33-.17.5-.47.53-.84v-3.82l3.3 1.44h.1c.12.06.25.1.4.1.13 0 .23-.04.33-.1l3.57-1.48c.33-.16.5-.47.5-.82v-4.6c0-.36-.2-.68-.55-.82zm-3.9-.07l2.03.86-1.9.78-1.98-.85zm-8.22 4.76l2.03.86-1.9.75-1.98-.82zm-8.2-4.77l2.02.86-1.9.75-1.98-.8zm-3 1.94l2.25.95v3.13l-2.26-.96zm3.75 4.08v-3l2.23-.9v2.97zm4.46.67l2.26.96v3.1l-2.26-.95zm3.73 4.1v-3l2.25-.93v2.98zm4.48-8.86l2.24.95v3.13l-2.25-.96zm3.73 4.1v-3l2.26-.93v3z" stroke="#fff" stroke-opacity="0" stroke-width="2" fill="#fff"/><use xlink:href="#k" transform="matrix(1,0,0,1,491,1351.5276090605332) translate(0 14.4)"/><use xlink:href="#l" transform="matrix(1,0,0,1,491,1351.5276090605332) translate(41.95 14.4)"/><use xlink:href="#m" transform="matrix(1,0,0,1,491,1351.5276090605332) translate(108.85000000000001 14.4)"/><path d="M1040 811.6h460V2202.9h-460z" fill="#fff" fill-opacity="0"/><path d="M1051.9 811.6h7.93m7.93 0h7.93m7.92 0h7.93m7.93 0h7.93m7.94 0h7.94m7.93 0h7.94m7.93 0h7.93m7.93 0h7.93m7.93 0h7.92m7.93 0h7.94m7.92 0h7.93m7.93 0h7.93m7.94 0h7.93m7.93 0h7.93m7.94 0h7.93m7.93 0h7.93m7.93 0h7.92m7.93 0h7.93m7.93 0h7.94m7.94 0h7.93m7.94 0h7.93m7.93 0h7.93m7.93 0h7.93m7.92 0h7.93m7.94 0h7.92m7.93 0h7.93m7.93 0h7.94m7.93 0h7.93m7.93 0h3.97v4m0 7.98v8m0 8v8m0 8v7.98m0 8v8m0 8v8m0 7.98v8m0 8v8m0 8v8m0 7.98v8m0 8v8m0 8v7.98m0 8v8m0 8v8m0 7.98v8m0 8v8m0 8v7.98m0 8v8m0 8v8m0 7.98v8m0 8v8m0 8v7.98m0 8v8m0 8v8m0 7.98v8m0 8v8m0 8v7.98m0 8v8m0 8v8m0 8v7.98m0 8v8m0 8v8m0 7.98v8m0 8v8m0 8v7.98m0 8v8m0 8v8m0 7.98v8m0 8v8m0 8v8m0 7.98v8m0 8v8m0 8v7.98m0 8v8m0 8v8m0 7.98v8m0 8v8m0 8v7.98m0 8v8m0 8v8m0 7.98v8m0 8v8m0 8v7.98m0 8v8m0 8v8m0 7.98v8m0 8v8m0 8v7.98m0 8v8m0 8v8m0 8v7.98m0 8v8m0 8v8m0 7.98v8m0 8v8m0 8v7.98m0 8v8m0 8v8m0 7.98v8m0 8v8m0 8v8m0 7.98v8m0 8v8m0 8v7.98m0 8v8m0 8v8m0 7.98v8m0 8v8m0 8v7.98m0 8v8m0 8v8m0 7.98v8m0 8v8m0 8v7.98m0 8v8m0 8v8m0 8v7.98m0 8v4h-3.97m-7.93 0h-7.93m-7.93 0h-7.93m-7.92 0h-7.93m-7.93 0h-7.93m-7.94 0h-7.94m-7.93 0h-7.94m-7.93 0H1385m-7.93 0h-7.93m-7.93 0h-7.92m-7.93 0h-7.94m-7.92 0h-7.93m-7.93 0h-7.93m-7.94 0h-7.93m-7.93 0h-7.93m-7.94 0h-7.93m-7.93 0h-7.93m-7.93 0h-7.92m-7.93 0h-7.93m-7.93 0h-7.94m-7.94 0h-7.93m-7.94 0h-7.93m-7.93 0h-7.93m-7.93 0h-7.93m-7.92 0h-7.93m-7.94 0h-7.92m-7.93 0h-7.93m-7.93 0h-7.94m-7.93 0h-7.93m-7.93 0H1040v-4m0-8v-8m0-8v-8m0-7.98v-8m0-8v-8m0-8v-7.98m0-8v-8m0-8v-8m0-8V2071m0-8v-8m0-8v-8m0-7.98v-8m0-8v-8m0-8v-7.98m0-8v-8m0-8v-8m0-7.98v-8m0-8v-8m0-8v-7.98m0-8v-8m0-8v-8m0-7.98v-8m0-8v-8m0-8v-7.98m0-8v-8m0-8v-8m0-8v-7.98m0-8v-8m0-8v-8m0-7.98v-8m0-8v-8m0-8v-7.98m0-8v-8m0-8v-8m0-7.98v-8m0-8v-8m0-8v-7.98m0-8v-8m0-8v-8m0-8v-7.98m0-8v-8m0-8v-8m0-7.98v-8m0-8v-8m0-8v-7.98m0-8v-8m0-8v-8m0-7.98v-8m0-8v-8m0-8v-7.98m0-8v-8m0-8v-8m0-7.98v-8m0-8v-8m0-8v-7.98m0-8v-8m0-8v-8m0-8v-7.98m0-8v-8m0-8v-8m0-7.98v-8m0-8v-8m0-8v-7.98m0-8v-8m0-8v-8m0-7.98v-8m0-8v-8m0-8v-7.98m0-8v-8m0-8v-8m0-8v-7.98m0-8v-8m0-8v-8m0-7.98v-8m0-8v-8m0-8v-7.98m0-8v-8m0-8v-8m0-7.98v-8m0-8v-8m0-8v-7.98m0-8v-8m0-8v-8m0-7.98v-8m0-8v-8m0-8v-7.98m0-8v-8m0-8v-4h3.97" stroke="#147eba" stroke-width="2" fill="none"/><use xlink:href="#n" transform="matrix(1,0,0,1,1040,831.5886045862019) translate(160.8641975308642 12.444444444444446)"/><use xlink:href="#o" transform="matrix(1,0,0,1,1040,831.5886045862019) translate(246.5925925925926 12.444444444444446)"/><use xlink:href="#j" transform="matrix(1,0,0,1,1040,831.5886045862019) translate(287.94444444444446 12.444444444444446)"/><path d="M380 811.6h460V2202.9H380z" fill="#fff" fill-opacity="0"/><path d="M391.9 811.6h7.93m7.93 0h7.93m7.92 0h7.93m7.93 0h7.93m7.95 0h7.93m7.93 0h7.94m7.93 0H495m7.93 0h7.93m7.93 0h7.92m7.93 0h7.94m7.92 0h7.93m7.93 0h7.93m7.94 0h7.93m7.93 0h7.93m7.94 0h7.93m7.93 0h7.93m7.93 0h7.92m7.93 0h7.93m7.93 0h7.95m7.93 0h7.93m7.94 0h7.93m7.93 0h7.93m7.93 0h7.93m7.92 0h7.93m7.94 0h7.92m7.93 0h7.93m7.93 0h7.94m7.93 0h7.93m7.93 0H840v4m0 7.98v8m0 8v8m0 8v7.98m0 8v8m0 8v8m0 7.98v8m0 8v8m0 8v8m0 7.98v8m0 8v8m0 8v7.98m0 8v8m0 8v8m0 7.98v8m0 8v8m0 8v7.98m0 8v8m0 8v8m0 7.98v8m0 8v8m0 8v7.98m0 8v8m0 8v8m0 7.98v8m0 8v8m0 8v7.98m0 8v8m0 8v8m0 8v7.98m0 8v8m0 8v8m0 7.98v8m0 8v8m0 8v7.98m0 8v8m0 8v8m0 7.98v8m0 8v8m0 8v8m0 7.98v8m0 8v8m0 8v7.98m0 8v8m0 8v8m0 7.98v8m0 8v8m0 8v7.98m0 8v8m0 8v8m0 7.98v8m0 8v8m0 8v7.98m0 8v8m0 8v8m0 7.98v8m0 8v8m0 8v7.98m0 8v8m0 8v8m0 8v7.98m0 8v8m0 8v8m0 7.98v8m0 8v8m0 8v7.98m0 8v8m0 8v8m0 7.98v8m0 8v8m0 8v8m0 7.98v8m0 8v8m0 8v7.98m0 8v8m0 8v8m0 7.98v8m0 8v8m0 8v7.98m0 8v8m0 8v8m0 7.98v8m0 8v8m0 8v7.98m0 8v8m0 8v8m0 8v7.98m0 8v4h-3.97m-7.93 0h-7.93m-7.93 0h-7.93m-7.92 0h-7.93m-7.93 0h-7.93m-7.95 0h-7.93m-7.93 0h-7.94m-7.93 0H725m-7.93 0h-7.93m-7.93 0h-7.92m-7.93 0h-7.94m-7.92 0h-7.93m-7.93 0h-7.93m-7.94 0h-7.93m-7.93 0h-7.93m-7.94 0h-7.93m-7.93 0h-7.93m-7.93 0h-7.92m-7.93 0h-7.93m-7.93 0h-7.95m-7.93 0h-7.93m-7.94 0h-7.93m-7.93 0h-7.93m-7.93 0h-7.93m-7.92 0h-7.93m-7.94 0h-7.92m-7.93 0h-7.93m-7.93 0h-7.94m-7.93 0h-7.93m-7.93 0H380v-4m0-8v-8m0-8v-8m0-7.98v-8m0-8v-8m0-8v-7.98m0-8v-8m0-8v-8m0-8V2071m0-8v-8m0-8v-8m0-7.98v-8m0-8v-8m0-8v-7.98m0-8v-8m0-8v-8m0-7.98v-8m0-8v-8m0-8v-7.98m0-8v-8m0-8v-8m0-7.98v-8m0-8v-8m0-8v-7.98m0-8v-8m0-8v-8m0-8v-7.98m0-8v-8m0-8v-8m0-7.98v-8m0-8v-8m0-8v-7.98m0-8v-8m0-8v-8m0-7.98v-8m0-8v-8m0-8v-7.98m0-8v-8m0-8v-8m0-8v-7.98m0-8v-8m0-8v-8m0-7.98v-8m0-8v-8m0-8v-7.98m0-8v-8m0-8v-8m0-7.98v-8m0-8v-8m0-8v-7.98m0-8v-8m0-8v-8m0-7.98v-8m0-8v-8m0-8v-7.98m0-8v-8m0-8v-8m0-8v-7.98m0-8v-8m0-8v-8m0-7.98v-8m0-8v-8m0-8v-7.98m0-8v-8m0-8v-8m0-7.98v-8m0-8v-8m0-8v-7.98m0-8v-8m0-8v-8m0-8v-7.98m0-8v-8m0-8v-8m0-7.98v-8m0-8v-8m0-8v-7.98m0-8v-8m0-8v-8m0-7.98v-8m0-8v-8m0-8v-7.98m0-8v-8m0-8v-8m0-7.98v-8m0-8v-8m0-8v-7.98m0-8v-8m0-8v-4h3.97" stroke="#147eba" stroke-width="2" fill="none"/><use xlink:href="#n" transform="matrix(1,0,0,1,380,831.5886045862019) translate(160.8641975308642 12.444444444444446)"/><use xlink:href="#o" transform="matrix(1,0,0,1,380,831.5886045862019) translate(246.5925925925926 12.444444444444446)"/><use xlink:href="#d" transform="matrix(1,0,0,1,380,831.5886045862019) translate(287.94444444444446 12.444444444444446)"/><path d="M1060 881.84h420V1032h-420z" fill="#248814" fill-opacity=".13"/><path d="M1060 881.84h56v56h-56v-56z" stroke="#fff" stroke-opacity="0" fill="#248814"/><path d="M1103.38 904.02c-.15-.17-.34-.25-.56-.25h-5.15v-5.58c-.03-2.54-.97-4.7-2.84-6.4-1.9-1.84-4.15-2.76-6.77-2.76-2.65 0-4.9.83-6.8 2.62-1.9 1.7-2.87 3.87-2.9 6.4v5.67h-5.15c-.24 0-.43.08-.58.25-.16.16-.22.33-.22.58v25.3c0 .4.34.78.8.78h29.6c.46 0 .8-.37.8-.8v-25.28c0-.2-.06-.38-.22-.54zm-23.46-5.9c.03-2.13.8-3.88 2.37-5.3 1.6-1.5 3.52-2.2 5.73-2.2 2.22 0 4.12.75 5.7 2.25 1.54 1.4 2.32 3.2 2.32 5.32v5.57h-16.16zm22.1 30.94h-28.03v-23.7h28z" stroke="#fff" stroke-opacity="0" fill="#fff"/><path d="M1087.2 919.15v6.24h1.6v-6.24c2.13-.38 3.62-2.2 3.63-4.35 0-2.42-1.97-4.4-4.4-4.4-2.2-.04-4.07 1.5-4.44 3.66-.42 2.4 1.2 4.7 3.6 5.1zm.82-7.16c.78 0 1.44.26 2 .82.54.55.82 1.2.8 2 .03 1.54-1.2 2.8-2.74 2.8h-.06c-1.56.13-2.92-1.04-3.04-2.6-.12-1.56 1.05-2.92 2.6-3.03.16-.02.3-.02.44 0z" stroke="#fff" stroke-opacity="0" fill="#fff"/><use xlink:href="#g" transform="matrix(1,0,0,1,1131,901.841689038089) translate(0 12.444444444444446)"/><use xlink:href="#p" transform="matrix(1,0,0,1,1131,901.841689038089) translate(50.901234567901234 12.444444444444446)"/><use xlink:href="#j" transform="matrix(1,0,0,1,1131,901.841689038089) translate(107.76543209876543 12.444444444444446)"/><path d="M1060 1051.05h420v751.87h-420z" fill="#147eba" fill-opacity=".13"/><path d="M1060 1051.05h56v56h-56v-56z" stroke="#fff" stroke-opacity="0" fill="#147eba"/><path d="M1103.38 1073.23c-.15-.17-.34-.25-.56-.25h-5.15v-5.58c-.03-2.53-.97-4.7-2.84-6.4-1.9-1.83-4.15-2.75-6.77-2.75-2.65 0-4.9.83-6.8 2.62-1.9 1.7-2.87 3.87-2.9 6.4v5.67h-5.15c-.24 0-.43.08-.58.25-.16.15-.22.32-.22.57v25.3c0 .4.34.78.8.78h29.6c.46 0 .8-.37.8-.8v-25.28c0-.2-.06-.38-.22-.54zm-23.46-5.9c.03-2.13.8-3.88 2.37-5.3 1.6-1.5 3.52-2.2 5.73-2.2 2.22 0 4.12.75 5.7 2.25 1.54 1.4 2.32 3.2 2.32 5.32v5.58h-16.16zm22.1 30.94h-28.03v-23.7h28z" stroke="#fff" stroke-opacity="0" fill="#fff"/><path d="M1087.2 1088.36v6.24h1.6v-6.22c2.13-.4 3.62-2.2 3.63-4.36 0-2.43-1.97-4.4-4.4-4.42-2.2-.03-4.07 1.5-4.44 3.67-.42 2.4 1.2 4.68 3.6 5.1zm.82-7.16c.78 0 1.44.27 2 .83.54.55.82 1.2.8 2 .03 1.54-1.2 2.8-2.74 2.8h-.06c-1.56.13-2.92-1.04-3.04-2.6-.12-1.56 1.05-2.92 2.6-3.03h.44z" stroke="#fff" stroke-opacity="0" fill="#fff"/><use xlink:href="#a" transform="matrix(1,0,0,1,1131,1071.0519379195935) translate(0 12.444444444444446)"/><use xlink:href="#b" transform="matrix(1,0,0,1,1131,1071.0519379195935) translate(56.129629629629626 12.444444444444446)"/><use xlink:href="#c" transform="matrix(1,0,0,1,1131,1071.0519379195935) translate(90.5679012345679 12.444444444444446)"/><use xlink:href="#j" transform="matrix(1,0,0,1,1131,1071.0519379195935) translate(147.4320987654321 12.444444444444446)"/><path d="M1760.22 1824.58h420v300h-420z" fill="#147eba" fill-opacity=".13"/><path d="M1760.22 1824.58h56v56h-56v-56z" stroke="#fff" stroke-opacity="0" fill="#147eba"/><path d="M1803.6 1846.75c-.15-.16-.34-.25-.56-.25h-5.15v-5.57c-.04-2.54-.98-4.7-2.85-6.4-1.9-1.84-4.15-2.75-6.77-2.75-2.65 0-4.9.83-6.8 2.62-1.9 1.7-2.87 3.87-2.9 6.4v5.66h-5.15c-.25 0-.44.1-.6.25-.15.18-.2.35-.2.6v25.3c0 .4.33.78.8.78H1803c.48 0 .82-.38.82-.8v-25.28c0-.2-.06-.38-.22-.55zm-23.46-5.9c.03-2.13.8-3.87 2.37-5.3 1.63-1.48 3.54-2.2 5.75-2.2 2.2 0 4.12.76 5.7 2.26 1.54 1.42 2.32 3.2 2.32 5.33v5.57h-16.16zm22.1 30.95h-28.03v-23.7h28.03z" stroke="#fff" stroke-opacity="0" fill="#fff"/><path d="M1787.42 1861.9v6.23h1.6v-6.23c2.13-.4 3.62-2.2 3.63-4.35 0-2.43-1.98-4.4-4.42-4.43-2.2-.03-4.05 1.5-4.42 3.68-.4 2.4 1.2 4.68 3.62 5.1zm.8-7.17c.8 0 1.46.27 2.02.82.54.56.82 1.22.8 2 .03 1.55-1.2 2.8-2.74 2.82h-.07c-1.55.12-2.9-1.05-3.03-2.6-.12-1.57 1.05-2.94 2.6-3.04.16-.02.28-.02.43 0z" stroke="#fff" stroke-opacity="0" fill="#fff"/><use xlink:href="#q" transform="matrix(1,0,0,1,1831.218833445514,1844.5782312638582) translate(0 12.444444444444446)"/><use xlink:href="#r" transform="matrix(1,0,0,1,1831.218833445514,1844.5782312638582) translate(56.129629629629626 12.444444444444446)"/><use xlink:href="#s" transform="matrix(1,0,0,1,1831.218833445514,1844.5782312638582) translate(82.83333333333333 12.444444444444446)"/><use xlink:href="#t" transform="matrix(1,0,0,1,1831.218833445514,1844.5782312638582) translate(139.69753086419752 12.444444444444446)"/><path d="M1739 813.25h460v1391.33h-460z" fill="#fff" fill-opacity="0"/><path d="M1750.9 813.25h7.92m7.93 0h7.93m7.93 0h7.94m7.93 0h7.94m7.94 0h7.93m7.93 0h7.93m7.93 0h7.93m7.92 0h7.93m7.94 0h7.92m7.93 0h7.93m7.93 0h7.94m7.93 0h7.93m7.93 0h7.93m7.94 0h7.93m7.93 0h7.93m7.92 0h7.93m7.93 0h7.93m7.94 0h7.93m7.94 0h7.94m7.93 0h7.93m7.93 0h7.93m7.93 0h7.92m7.93 0h7.94m7.92 0h7.93m7.93 0h7.93m7.94 0h7.93m7.93 0h7.93m7.93 0h7.94m7.93 0h3.96v4m0 8v8m0 8v7.98m0 8v8m0 8v8m0 8v7.98m0 8v8m0 8v8m0 8v8m0 7.98v8m0 8v8m0 8v8m0 7.98v8m0 8v8m0 7.98v8m0 8v8m0 8v8m0 7.98v8m0 8v8m0 8v7.98m0 8v8m0 8v8m0 7.98v8m0 8v8m0 8v7.98m0 8v8m0 8v8m0 8v7.98m0 8v8m0 8v8m0 7.98v8m0 8v8m0 8v7.98m0 8v8m0 8v8m0 7.98v8m0 8v8m0 8v7.98m0 8v8m0 8v8m0 7.98v8m0 8v8m0 8v7.98m0 8v8m0 8v8m0 7.98v8m0 8v8m0 8v8m0 7.98v8m0 8v8m0 8v7.98m0 8v8m0 8v8m0 7.98v8m0 8v8m0 8v7.98m0 8v8m0 8v8m0 8v7.98m0 8v8m0 8v8m0 7.98v8m0 8v8m0 8v7.98m0 8v8m0 8v8m0 7.98v8m0 8v8m0 8v7.98m0 8v8m0 8v8m0 7.98v8m0 8v8m0 8v7.98m0 8v8m0 8v8m0 7.98v8m0 8v8m0 8v8m0 7.98v8m0 8v8m0 8v7.98m0 8v8m0 8v8m0 7.98v8m0 8v8m0 8v7.98m0 8v4h-3.97m-7.93 0h-7.93m-7.94 0h-7.93m-7.93 0h-7.93m-7.93 0h-7.92m-7.93 0h-7.93m-7.93 0h-7.95m-7.93 0H2084m-7.94 0h-7.93m-7.93 0h-7.93m-7.93 0h-7.93m-7.93 0h-7.93m-7.93 0h-7.92m-7.93 0h-7.93m-7.93 0h-7.94m-7.93 0h-7.93m-7.93 0h-7.94m-7.93 0h-7.93m-7.93 0h-7.93m-7.92 0h-7.93m-7.93 0h-7.93m-7.94 0h-7.94m-7.93 0h-7.94m-7.93 0h-7.93m-7.93 0h-7.93m-7.93 0h-7.93m-7.93 0h-7.93m-7.92 0h-7.93m-7.93 0h-7.93m-7.94 0H1739v-4m0-8v-8m0-8v-7.98m0-8v-8m0-8v-8m0-8v-7.98m0-8v-8m0-8v-8m0-7.98v-8m0-8v-8m0-8v-7.98m0-8v-8m0-8v-8m0-7.98v-8m0-8v-8m0-8v-7.98m0-8v-8m0-8v-8m0-7.98v-8m0-8v-8m0-8v-8m0-7.98v-8m0-8v-8m0-8v-7.98m0-8v-8m0-8v-8m0-7.98v-8m0-8v-8m0-8v-7.98m0-8v-8m0-8v-8m0-7.98v-8m0-8v-8m0-8v-7.98m0-8v-8m0-8v-8m0-7.98v-8m0-8v-8m0-8v-8m0-7.98v-8m0-8v-8m0-8v-7.98m0-8v-8m0-8v-8m0-7.98v-8m0-8v-8m0-8v-7.98m0-8v-8m0-8v-8m0-7.98v-8m0-8v-8m0-8v-8m0-7.98v-8m0-8v-8m0-8V1337m0-8v-8m0-8v-8m0-7.98v-8m0-8v-8m0-8v-7.98m0-8v-8m0-8v-8m0-7.98v-8m0-8v-8m0-8v-7.98m0-8v-8m0-8v-8m0-7.98v-8m0-8v-8m0-8v-8m0-7.98v-8m0-8v-8m0-8v-7.98m0-8v-8m0-8v-8m0-7.98v-8m0-8v-8m0-8v-7.98m0-8v-8m0-8v-8m0-7.98v-8m0-8v-8m0-8v-8m0-7.98v-8m0-8v-8m0-8v-7.98m0-8v-8m0-8v-4h3.96" stroke="#147eba" stroke-width="2" fill="none"/><use xlink:href="#u" transform="matrix(1,0,0,1,1738.9927220011964,833.251813478754) translate(160.8641975308642 12.444444444444446)"/><use xlink:href="#v" transform="matrix(1,0,0,1,1738.9927220011964,833.251813478754) translate(246.5925925925926 12.444444444444446)"/><use xlink:href="#t" transform="matrix(1,0,0,1,1738.9927220011964,833.251813478754) translate(287.94444444444446 12.444444444444446)"/><path d="M1759 883.5h420v150.17h-420z" fill="#248814" fill-opacity=".13"/><path d="M1759 883.5h56v56h-56v-56z" stroke="#fff" stroke-opacity="0" fill="#248814"/><path d="M1802.38 905.68c-.16-.17-.35-.25-.57-.25h-5.13v-5.57c-.04-2.54-.97-4.7-2.84-6.4-1.9-1.84-4.15-2.75-6.77-2.75-2.66 0-4.9.84-6.8 2.63-1.9 1.7-2.88 3.86-2.9 6.4v5.66h-5.16c-.25 0-.43.07-.6.24-.14.17-.2.33-.2.58v25.3c0 .4.34.78.8.78h29.58c.47 0 .8-.37.8-.8v-25.28c0-.2-.05-.37-.2-.54zm-23.47-5.9c.04-2.13.82-3.88 2.38-5.3 1.63-1.5 3.53-2.2 5.74-2.2 2.22 0 4.12.75 5.7 2.25 1.54 1.42 2.32 3.2 2.32 5.33v5.57h-16.16zm22.1 30.94h-28.02v-23.7H1801z" stroke="#fff" stroke-opacity="0" fill="#fff"/><path d="M1786.2 920.8v6.26h1.6v-6.23c2.12-.4 3.62-2.2 3.63-4.35 0-2.44-1.98-4.42-4.42-4.43-2.2-.03-4.04 1.5-4.42 3.68-.4 2.4 1.2 4.68 3.6 5.08zm.8-7.15c.8 0 1.45.27 2 .83.56.55.83 1.22.82 2 .02 1.54-1.2 2.8-2.75 2.82h-.06c-1.55.12-2.9-1.05-3.03-2.6-.1-1.58 1.05-2.94 2.6-3.05h.44z" stroke="#fff" stroke-opacity="0" fill="#fff"/><use xlink:href="#w" transform="matrix(1,0,0,1,1829.9927220011964,903.5048979306412) translate(0 12.444444444444446)"/><use xlink:href="#x" transform="matrix(1,0,0,1,1829.9927220011964,903.5048979306412) translate(50.901234567901234 12.444444444444446)"/><use xlink:href="#t" transform="matrix(1,0,0,1,1829.9927220011964,903.5048979306412) translate(107.76543209876543 12.444444444444446)"/><path d="M1759 1052.7h420v751.88h-420z" fill="#147eba" fill-opacity=".13"/><path d="M1759 1052.7h56v56h-56v-56z" stroke="#fff" stroke-opacity="0" fill="#147eba"/><path d="M1802.38 1074.9c-.16-.18-.35-.26-.57-.26h-5.13v-5.57c-.04-2.54-.97-4.7-2.84-6.4-1.9-1.84-4.15-2.76-6.77-2.76-2.66 0-4.9.85-6.8 2.64-1.9 1.7-2.88 3.86-2.9 6.4v5.66h-5.16c-.25 0-.43.08-.6.25-.14.17-.2.33-.2.58v25.3c0 .4.34.8.8.8h29.58c.47 0 .8-.4.8-.8v-25.3c0-.2-.05-.37-.2-.54zm-23.47-5.92c.04-2.12.82-3.87 2.38-5.28 1.63-1.5 3.53-2.2 5.74-2.2 2.22 0 4.12.74 5.7 2.24 1.54 1.42 2.32 3.2 2.32 5.33v5.57h-16.16zm22.1 30.95h-28.02v-23.7H1801z" stroke="#fff" stroke-opacity="0" fill="#fff"/><path d="M1786.2 1090.02v6.25h1.6v-6.23c2.12-.4 3.62-2.2 3.63-4.35 0-2.44-1.98-4.43-4.42-4.44-2.2-.03-4.04 1.5-4.42 3.68-.4 2.4 1.2 4.68 3.6 5.08zm.8-7.16c.8 0 1.45.28 2 .83.56.54.83 1.2.82 2 .02 1.53-1.2 2.8-2.75 2.8h-.06c-1.55.13-2.9-1.04-3.03-2.6-.1-1.57 1.05-2.93 2.6-3.04h.44z" stroke="#fff" stroke-opacity="0" fill="#fff"/><use xlink:href="#q" transform="matrix(1,0,0,1,1829.9927220011964,1072.7151468121456) translate(0 12.444444444444446)"/><use xlink:href="#y" transform="matrix(1,0,0,1,1829.9927220011964,1072.7151468121456) translate(56.129629629629626 12.444444444444446)"/><use xlink:href="#s" transform="matrix(1,0,0,1,1829.9927220011964,1072.7151468121456) translate(90.5679012345679 12.444444444444446)"/><use xlink:href="#z" transform="matrix(1,0,0,1,1829.9927220011964,1072.7151468121456) translate(147.4320987654321 12.444444444444446)"/><path d="M1001.5 1508.9h205.38a12 12 0 0 0 12-12v-19" stroke="#333" fill="none"/><path d="M1001.52 1509.05v.34h-3.5v-.42zm0-.1l-3.5-.17v-.34h3.5z" stroke="#333" stroke-width=".05" fill="#333"/><path d="M1218.88 1463.14l4.64 14.27h-9.27z" stroke="#333" fill="#333"/><path d="M884.35 1508.9H642a12 12 0 0 1-12-12v-19" stroke="#333" fill="none"/><path d="M884.85 1509.4h-.5v-.96h.5z" stroke="#333" stroke-width=".05" fill="#333"/><path d="M630 1463.14l4.63 14.27h-9.26z" stroke="#333" fill="#333"/><path d="M940 881.84c-22.08 0-40-17.92-40-40s17.92-40 40-40 40 17.92 40 40-17.92 40-40 40zm0-76.56c-20.24 0-36.56 16.32-36.56 36.56 0 20.24 16.32 36.56 36.56 36.56 20.24 0 36.56-16.32 36.56-36.56 0-20.24-16.32-36.56-36.56-36.56z" stroke="#fff" stroke-opacity="0" fill="#693cc5"/><path d="M959.14 865.88h-6.38c-.96 0-1.7-.76-1.7-1.7v-33.02c-3.47-1.8-6.76-2.6-10.64-2.7-4.26.1-7.8 1.05-11.55 3.08v32.64c0 .94-.75 1.7-1.67 1.7h-6.34c-.96 0-1.7-.76-1.7-1.7v-37.13c0-.52.2-.94.57-1.27 6.1-5 12.85-7.32 20.7-7.13 7.4-.14 13.8 1.93 19.75 6.33.46.33.67.8.67 1.32v37.88c0 .94-.75 1.7-1.7 1.7zm-4.67-3.4h2.96v-35.33c-5.2-3.6-10.67-5.2-17-5.1-6.73-.2-12.52 1.7-17.86 5.76v34.68h2.92v-32.03c0-.66.32-1.22.9-1.5 4.5-2.56 8.85-3.8 14.02-3.88 4.7.14 8.7 1.18 12.88 3.4h.17c.63.28 1 .85 1 1.56z" stroke="#fff" stroke-opacity="0" fill="#693cc5"/><use xlink:href="#A" transform="matrix(1,0,0,1,870,890.841689038089) translate(54.46604938271605 13.61111111111111)"/><path d="M940 882.34v92.8" stroke="#333" fill="none"/><path d="M940 881.84h.48v.5h-.96v-.53z" stroke="#333" stroke-width=".05" fill="#333"/><path d="M940 989.92l-4.63-14.27h9.26z" stroke="#333" fill="#333"/><path d="M1300 1002.9c-22.08 0-40-17.9-40-40 0-22.06 17.92-40 40-40s40 17.94 40 40c0 22.1-17.92 40-40 40zm0-76.54c-20.24 0-36.56 16.3-36.56 36.55 0 20.25 16.32 36.58 36.56 36.58 20.24 0 36.56-16.33 36.56-36.57 0-20.23-16.32-36.54-36.56-36.54z" stroke="#fff" stroke-opacity="0" fill="#693cc5"/><path d="M1304.8 985.37h-14.04v-3.42h12.33v-34.87h-12.34v-3.42h14.03c.93 0 1.68.75 1.68 1.7v38.3c0 .96-.75 1.7-1.7 1.7z" stroke="#fff" stroke-opacity="0" fill="#693cc5"/><path d="M1290.42 962.8h30.3v3.42h-30.3v-3.4zM1279.25 953.45c-.27 0-.5-.05-.73-.18-.6-.27-.97-.85-.97-1.52V939c0-.7.36-1.26.97-1.55.6-.3 1.27-.22 1.8.2l7.97 6.4c.4.33.64.78.64 1.3 0 .55-.23 1.02-.65 1.34l-7.97 6.38c-.32.26-.67.37-1.08.37zm1.7-10.93v5.7l3.56-2.86zM1279.25 972.6c-.27 0-.5-.05-.73-.18-.6-.27-.97-.85-.97-1.52v-12.76c0-.68.36-1.25.97-1.54.6-.3 1.27-.22 1.8.2l7.97 6.4c.4.32.64.78.64 1.3 0 .55-.23 1-.65 1.34l-7.97 6.4c-.32.25-.67.36-1.08.36zm1.7-10.94v5.7l3.56-2.85z" stroke="#fff" stroke-opacity="0" fill="#693cc5"/><path d="M1322.33 974.18c-.23 0-.42-.04-.64-.1-.67-.28-1.07-.88-1.07-1.6v-15.96c0-.92.75-1.7 1.7-1.7.46 0 .87.17 1.22.5l7.98 7.98c.65.68.65 1.74 0 2.4l-7.98 8c-.35.33-.74.48-1.22.48zm1.7-13.6v7.74l3.9-3.88zM1279.26 990.15c-.28 0-.5-.05-.74-.18-.6-.27-.97-.86-.97-1.52V975.7c0-.97.75-1.73 1.7-1.73.4 0 .76.13 1.08.4l7.96 6.37c.72.58.84 1.66.25 2.4-.08.1-.16.17-.26.25l-7.97 6.38c-.32.26-.68.37-1.07.37zm1.7-10.94v5.7l3.55-2.84z" stroke="#fff" stroke-opacity="0" fill="#693cc5"/><use xlink:href="#B" transform="matrix(1,0,0,1,1230,1011.9150223713059) translate(24.132716049382708 13.61111111111111)"/><use xlink:href="#C" transform="matrix(1,0,0,1,1230,1011.9150223713059) translate(58.00925925925925 13.61111111111111)"/><path d="M939.85 1072.03v117a12 12 0 0 0 12 12h305.9a12 12 0 0 1 12 12v101.1" stroke="#333" fill="none"/><path d="M939.85 1071.53l.47-.02v.54h-.95v-.54z" stroke="#333" stroke-width=".05" fill="#333"/><path d="M1269.75 1328.9l-4.63-14.26h9.27z" stroke="#333" fill="#333"/><path d="M939.85 1071.53c-22.08 0-40-17.92-40-40s17.92-40 40-40 40 17.92 40 40-17.92 40-40 40zm0-76.8c-20.32 0-36.8 16.48-36.8 36.8 0 20.32 16.48 36.8 36.8 36.8 20.32 0 36.8-16.48 36.8-36.8 0-20.32-16.48-36.8-36.8-36.8z" stroke="#fff" stroke-opacity="0" stroke-width="3" fill="#693cc5"/><path d="M963.7 1042.72h-3.05v-6.4c0-.9-.7-1.6-1.58-1.6h-4.84v-6.4c0-.88-.7-1.57-1.57-1.57h-11.2v-4.8h11.2c.86 0 1.58-.76 1.58-1.6v-14.44c0-.88-.72-1.57-1.58-1.57h-25.62c-.87 0-1.58.7-1.58 1.58v14.45c0 .84.7 1.6 1.58 1.6h11.2v4.8h-11.2c-.87 0-1.58.7-1.58 1.58v6.4h-4.8c-.9 0-1.62.7-1.62 1.6v6.4H916c-.88 0-1.6.73-1.6 1.58v8.04c0 .9.72 1.6 1.6 1.6h7.83c.92 0 1.63-.7 1.63-1.6v-8.03c0-.84-.7-1.58-1.63-1.58h-1.58v-4.8h8v4.8h-1.58c-.92 0-1.63.74-1.63 1.6v8.02c0 .9.7 1.6 1.63 1.6h8c.86 0 1.57-.7 1.57-1.6v-8.03c0-.84-.7-1.58-1.58-1.58h-3.2v-6.4c0-.9-.72-1.6-1.63-1.6h-3.16v-4.8h22.36v4.8h-3.16c-.92 0-1.63.7-1.63 1.6v6.4h-3.2c-.88 0-1.6.74-1.6 1.6v8.02c0 .9.72 1.6 1.6 1.6h8c.9 0 1.62-.7 1.62-1.6v-8.03c0-.84-.72-1.58-1.63-1.58h-1.58v-4.8h8v4.8h-1.74c-.85 0-1.57.74-1.57 1.6v8.02c0 .9.72 1.6 1.58 1.6h8.06c.86 0 1.58-.7 1.58-1.6v-8.03-.04c-.05-.85-.77-1.54-1.63-1.54zm-41.45 7.98h-4.63v-4.76h4.63zm12.78-4.76v4.76h-4.78v-4.76zm-6.36-27.23v-11.15h22.36v11.16zm20.78 32h-4.8v-4.76h4.8zm12.63 0h-4.8v-4.76h4.8z" stroke="#fff" stroke-opacity="0" stroke-width="3" fill="#693cc5"/><use xlink:href="#D" transform="matrix(1,0,0,1,869.849338021013,1080.5276090605332) translate(53 14.4)"/><path d="M906 579.64h80v80h-80v-80z" stroke="#fff" stroke-opacity="0" fill="#693cc5"/><path d="M935.1 625.44c1.43.5 2.7.74 4.2.78.94.08 1.78-.15 2.56-.7.62-.6.92-1.3.88-2.15.08-.87-.2-1.65-.83-2.27-.83-.56-1.7-.78-2.7-.7-1.22 0-2.24.08-3.43.22v-1.5l.42-6.6h8.02v1.78H938l-.3 4.47c.75-.14 1.4-.2 2.15-.2 1.4-.1 2.64.32 3.72 1.24.95.94 1.4 2.13 1.33 3.47.05 1.38-.5 2.6-1.55 3.48-1.22.97-2.57 1.4-4.13 1.34-1.52 0-2.8-.27-4.2-.9zM952.54 619.03h.4c1.3-.1 2.48.28 3.5 1.14.9.86 1.34 1.95 1.27 3.2.05 1.37-.5 2.55-1.57 3.43-1.25.93-2.6 1.36-4.17 1.28-1.48 0-2.73-.28-4.08-.88v-1.76c1.38.5 2.62.73 4.08.78.97.08 1.8-.17 2.58-.73.64-.57.96-1.3.9-2.15 0-1.78-1.12-2.66-3.36-2.66-.75 0-1.4.02-2.14.1v-1.45l4.63-5.04h-6.46v-1.8h8.97v1.75z" stroke="#fff" stroke-opacity="0" fill="#fff"/><path d="M946 639.9c-.2 0-.38-.04-.55-.16-3.62-2.13-7.03-3.43-11.17-4.26-2.26-.4-9.6-2.13-9.6-7.46 0-2.4.95-4.03 2.14-6.04 1.83-2.72 2.77-5.5 2.9-8.76 0-3.16-.8-5.8-2.56-8.45-.25-.4-.2-.87.1-1.26l1.7-2.13c.33-.4.9-.5 1.36-.23 2.3 1.34 4.5 1.93 7.2 1.97 2.94.05 5.46-.74 7.85-2.48.38-.27.9-.27 1.23 0 2.43 1.74 4.95 2.53 7.9 2.5 2.63-.05 4.9-.68 7.2-1.98.46-.28 1.02-.16 1.36.23l1.7 2.13c.3.36.35.87.1 1.27-1.76 2.6-2.53 5.3-2.57 8.45 0 3.8 1.53 6.4 2.9 8.76 1.18 2 2.12 3.63 2.12 6.04 0 5.33-7.33 7.07-9.6 7.46-4.13.83-7.54 2.1-11.16 4.26-.17.12-.34.16-.55.16zm-16.62-35.72c1.66 2.84 2.43 5.64 2.43 8.92 0 4.38-1.74 7.42-3.2 9.83-1.06 1.9-1.78 3.16-1.78 4.97 0 3.8 6.52 5.17 7.8 5.4 4.22.84 7.63 2.14 11.34 4.27 3.7-2.13 7.16-3.43 11.34-4.26 1.33-.23 7.85-1.6 7.85-5.4 0-1.8-.73-3.08-1.83-4.97-1.4-2.4-3.2-5.45-3.2-9.83.04-3.28.8-6.08 2.5-8.92l-.67-.83c-2.4 1.22-4.73 1.8-7.46 1.8-3.16.05-5.85-.7-8.54-2.43-2.64 1.73-5.37 2.48-8.52 2.44-2.73 0-5.04-.6-7.47-1.8z" stroke="#fff" stroke-opacity="0" fill="#fff"/><path d="M946.02 646.3c-.26 0-.48-.05-.7-.2-3.78-2.73-7.45-4.38-11.98-5.34-8.8-1.6-14.02-6.45-14.02-12.85.1-3.24.96-6 2.83-8.73 1.17-1.97 2.13-3.67 2.13-6.02-.1-3.25-1.44-5.97-3.9-8.15-.47-.33-.58-1.02-.2-1.5.05 0 .05-.05.05-.05 0-.1 6.3-7.62 7.73-9.54.16-.3.47-.47.8-.47.37 0 .63.1.9.37 2.03 2.4 4.64 3.73 7.84 3.9 2.98 0 5.32-1.34 7.56-4.27.43-.48 1.17-.6 1.65-.16.07.05.12.1.17.16 2.24 2.98 4.6 4.26 7.57 4.26 3.2-.17 5.8-1.5 7.83-3.9.27-.26.54-.37.9-.37.33 0 .65.16.8.48 1.45 1.93 7.68 9.44 7.74 9.55.17.2.27.48.22.8 0 .32-.16.53-.37.75-2.45 2.18-3.8 4.9-3.9 8.15 0 2.35 1.02 4.05 2.14 6.02 1.85 2.72 2.7 5.5 2.8 8.74 0 6.4-5.2 11.26-14 12.86-4.53.96-8.2 2.56-12 5.33-.15.1-.37.2-.58.2zm-23.4-42.26c2.56 2.55 3.84 5.54 3.9 9.1 0 2.94-1.23 5.07-2.45 7.15-1.28 2.28-2.5 4.36-2.5 7.67 0 7.78 9.32 10.07 12.14 10.6 4.65.96 8.43 2.56 12.32 5.23 3.84-2.67 7.62-4.27 12.26-5.23 2.82-.53 12.15-2.82 12.15-10.6 0-3.3-1.23-5.33-2.5-7.68-1.23-2.14-2.46-4.27-2.46-7.15.06-3.57 1.33-6.56 3.9-9.12-1.45-1.7-4.64-5.6-6.35-7.78-2.4 2.35-5.22 3.57-8.52 3.68-3.47 0-6.4-1.44-8.53-4.1-2.2 2.66-5.12 4.1-8.58 4.1-3.32-.1-6.14-1.33-8.54-3.68-1.54 2.2-4.8 6.08-6.23 7.78z" stroke="#fff" stroke-opacity="0" fill="#fff"/><use xlink:href="#E" transform="matrix(1,0,0,1,876,668.6356222035868) translate(36.025 14.4)"/><path d="M946 660.14v125.82" stroke="#333" fill="none"/><path d="M946.48 660.15h-.96v-.5h.96z" stroke="#333" stroke-width=".05" fill="#333"/><path d="M946 800.72l-4.63-14.26h9.27z" stroke="#333" fill="#333"/><path d="M891.26 1450.4l-6.4 3.2v90.62l6.4 3.2 25.32-46.67-25.32-50.35zM910.82 1466.75l9.43-13.4 42.4 18.85-9.9 1.57-41.93-7.02zM903.47 1532.03l10.42 14.32 48.76-21.05-9.4-1.46-49.8 8.2z" fill="#9d5025"/><path d="M906.23 1543.93l-14.96 3.5v-97.03l14.96 3.4v90.13z" fill="#f58536"/><path d="M898.36 1446.84l7.88-3.92 14.8 62.27-14.8 49.7-7.88-3.9v-104.16zM952.7 1523.74l9.96 1.54 9.1-25.37-9.1-27.7-9.95 1.6v49.94z" fill="#9d5025"/><path d="M921.54 1550.55l-15.3 4.37v-112l15.3 4.36v103.27z" fill="#f58536"/><path d="M973.1 1523.33l-66.87 12.44v19.13l66.87-18.88v-12.7zM973.22 1474.2l-67-12.74v-18.55l67 19v12.3z" fill="#f58536"/><path d="M962.67 1458.92l10.74 2.96V1536l-10.73 2.97v-80.05z" fill="#f58536"/><path d="M1004.84 1489.12l-28.77 1.35-10.16-.7 29.1-23.42 9.84 22.77z" fill="#6b3a19"/><path d="M965.9 1489.78l29.1-1.64v-21.8l-29.1 4.72v18.72z" fill="#9d5025"/><path d="M938.55 1487.93l29.47-29.68 14.98 28.7-30.54 1.93-13.9-.95z" fill="#6b3a19"/><path d="M938.55 1487.95l29.46-2.5v-27.2l-29.45 6.9v22.8zM965.9 1508.42l38.94.68-9.85 22.75-29.1-4.7v-18.73z" fill="#9d5025"/><path d="M938.55 1510.26l44.45 1-14.98 28.7-29.47-6.9v-22.8z" fill="#9d5025"/><path d="M938.55 1510.25l29.47 2.52 14.98-1.5-30.54-1.95-13.9.93zM1004.84 1509.1l-28.77-1.35-10.16.67 29.1 1.66 9.84-1z" fill="#fbbf93"/><path d="M995 1488.13l9.84.97v-19.82l-9.84-2.93v21.78zM983 1486.94l-15-1.5v-27.2l15 4.5v24.2zM995 1510.07l9.84-.97v19.82l-9.84 2.93v-21.78zM983 1511.28l-15 1.5v27.17l15-4.47v-24.2z" fill="#f58536"/><use xlink:href="#F" transform="matrix(1,0,0,1,884.849338021013,1554.915022371306) translate(6.049999999999997 14.4)"/><use xlink:href="#G" transform="matrix(1,0,0,1,884.849338021013,1554.915022371306) translate(77 14.4)"/><path d="M600 1421.76h60v39.76h-60v-39.76z" fill="#9d5025"/><path d="M600 1418.14h60v39.76h-60v-39.76z" fill="#f58536"/><path d="M612.96 1420.52h2.83v35.02h-2.84v-35.02zM618.17 1420.52H621v35.02h-2.83v-35.02zM623.38 1420.52h2.82v35.02h-2.82v-35.02zM602.54 1420.52h2.83v35.02h-2.83v-35.02zM607.75 1420.52h2.83v35.02h-2.83v-35.02zM628.58 1420.52h2.83v35.02h-2.82v-35.02zM633.8 1420.52h2.82v35.02h-2.83v-35.02zM639 1420.52h2.83v35.02H639v-35.02zM644.2 1420.52h2.83v35.02h-2.83v-35.02zM649.4 1420.52h2.84v35.02h-2.83v-35.02zM654.62 1420.52h2.82v35.02h-2.82v-35.02z" fill="#fbbf93"/><path d="M603.28 1421.46h2.1v34.08h-2.1v-34.08zM608.5 1421.46h2.08v34.08h-2.1v-34.08zM613.7 1421.46h2.1v34.08h-2.1v-34.08zM618.9 1421.46h2.1v34.08h-2.1v-34.08zM624.1 1421.46h2.1v34.08h-2.1v-34.08zM629.32 1421.46h2.1v34.08h-2.1v-34.08zM634.52 1421.46h2.1v34.08h-2.1v-34.08zM639.73 1421.46h2.1v34.08h-2.1v-34.08zM644.94 1421.46h2.1v34.08h-2.1v-34.08zM650.15 1421.46h2.1v34.08h-2.1v-34.08zM655.36 1421.46h2.1v34.08h-2.1v-34.08z" fill="#fff"/><path d="M1188.88 1421.76h60v39.76h-60v-39.76z" fill="#9d5025"/><path d="M1188.88 1418.14h60v39.76h-60v-39.76z" fill="#f58536"/><path d="M1201.84 1420.52h2.83v35.02h-2.83v-35.02zM1207.05 1420.52h2.83v35.02h-2.83v-35.02zM1212.26 1420.52h2.83v35.02h-2.84v-35.02zM1191.43 1420.52h2.82v35.02h-2.82v-35.02zM1196.63 1420.52h2.83v35.02h-2.83v-35.02zM1217.47 1420.52h2.82v35.02h-2.83v-35.02zM1222.67 1420.52h2.83v35.02h-2.83v-35.02zM1227.88 1420.52h2.83v35.02h-2.82v-35.02zM1233.1 1420.52h2.8v35.02h-2.82v-35.02zM1238.3 1420.52h2.82v35.02h-2.83v-35.02zM1243.5 1420.52h2.83v35.02h-2.83v-35.02z" fill="#fbbf93"/><path d="M1192.16 1421.46h2.1v34.08h-2.1v-34.08zM1197.37 1421.46h2.1v34.08h-2.1v-34.08zM1202.58 1421.46h2.1v34.08h-2.1v-34.08zM1207.78 1421.46h2.1v34.08h-2.1v-34.08zM1213 1421.46h2.1v34.08h-2.1v-34.08zM1218.2 1421.46h2.1v34.08h-2.1v-34.08zM1223.4 1421.46h2.1v34.08h-2.1v-34.08zM1228.62 1421.46h2.1v34.08h-2.1v-34.08zM1233.82 1421.46h2.1v34.08h-2.1v-34.08zM1239.03 1421.46h2.1v34.08h-2.1v-34.08zM1244.24 1421.46h2.1v34.08h-2.1v-34.08z" fill="#fff"/><path d="M653.05 1330.03v-355.1a12 12 0 0 1 12-12h578.57" stroke="#333" fill="none"/><path d="M653.53 1330.53h-.95v-.5h.95z" stroke="#333" stroke-width=".05" fill="#333"/><path d="M1258.38 962.9l-14.26 4.65v-9.27z" stroke="#333" fill="#333"/><path d="M1914.18 1330.03v-355.1a12 12 0 0 0-12-12h-545.8" stroke="#333" fill="none"/><path d="M1914.66 1330.53h-.95v-.5h.96z" stroke="#333" stroke-width=".05" fill="#333"/><path d="M1341.62 962.9l14.26-4.62v9.27z" stroke="#333" fill="#333"/><path d="M820 1343.07h240v60H820z" stroke="#000" stroke-opacity="0" stroke-width="2" fill="#fff" fill-opacity="0"/><use xlink:href="#H" transform="matrix(1,0,0,1,825.0000000000005,1348.072062360084) translate(39.125 30.025)"/><use xlink:href="#I" transform="matrix(1,0,0,1,825.0000000000005,1348.072062360084) translate(121.97500000000001 30.025)"/><path d="M570 1660h80v80h-80v-80z" stroke="#fff" stroke-opacity="0" stroke-width="2" fill="#3b48cc"/><path d="M621.7 1690.1c0-3.07-6.08-4.5-11.75-4.5s-11.74 1.43-11.74 4.5c0 .18.04.3.06.47v19.24c-.05 3.24 6.04 4.6 11.74 4.6s11.73-1.42 11.73-4.5v-19.8zm-11.73-2.38c6.2 0 9.6 1.7 9.6 2.4 0 .68-3.36 2.38-9.6 2.38-6.25 0-9.6-1.67-9.6-2.4 0-.68 3.37-2.38 9.6-2.38zm9.6 22.18c0 .7-3.36 2.36-9.6 2.36-6.23 0-9.6-1.67-9.6-2.36v-3.37c2.24 1.24 6.03 1.8 9.6 1.8 3.58 0 7.32-.56 9.6-1.77zm0-6.08c0 .7-3.36 2.4-9.6 2.4-6.25 0-9.6-1.7-9.6-2.4h.03v-4.06c2.26 1.2 6.02 1.8 9.6 1.8 3.57 0 7.3-.6 9.6-1.77zm0-6.8c0 .7-3.36 2.42-9.6 2.42-6.25 0-9.6-1.73-9.6-2.42h.03v-4.14c2.28 1.2 6 1.75 9.6 1.75 3.6 0 7.38-.57 9.6-1.8zM586.97 1724.55H594v2.13h-9.6c-.6 0-1.07-.48-1.07-1.07v-9.6h2.13v7.02l8-8 1.5 1.5zM636.67 1716v9.6c0 .6-.48 1.08-1.07 1.08H626v-2.14h7.03l-7.88-7.9 1.5-1.5 7.88 7.88v-7zM636.67 1674.4v9.6h-2.13v-7.03l-7.88 7.88-1.5-1.5 7.86-7.88H626v-2.13h9.6c.6 0 1.07.48 1.07 1.07zM594.96 1683.47l-1.5 1.5-8-8v7.02h-2.13v-9.6c0-.6.48-1.08 1.07-1.08h9.6v2.13h-7.03zM593.64 1709.56c-6.52-2.34-10.25-5.94-10.25-9.83 0-3.9 3.72-7.46 10.24-9.82l.72 2c-5.53 2.02-8.84 4.92-8.84 7.83 0 2.9 3.3 5.82 8.84 7.82zM625.77 1709.8l-.7-2.04c5.93-2 9.46-5 9.46-8.03 0-3.03-3.53-6.03-9.45-8.04l.7-2.03c6.9 2.34 10.9 6.02 10.9 10.06 0 4.05-4 7.7-10.9 10.06z" stroke="#fff" stroke-opacity="0" stroke-width="2" fill="#fff"/><use xlink:href="#J" transform="matrix(1,0,0,1,540,1749) translate(15.574999999999996 14.4)"/><use xlink:href="#K" transform="matrix(1,0,0,1,540,1749) translate(86.525 14.4)"/><path d="M1219.38 1501h686.5a12 12 0 0 0 12-12v-9.43M1219.4 1501h-.52" stroke="#333" fill="none"/><path d="M1917.88 1464.8l4.63 14.27h-9.26z" stroke="#333" fill="#333"/><path d="M1887.88 1423.42h60v39.77h-60v-39.78z" fill="#9d5025"/><path d="M1887.88 1419.8h60v39.77h-60v-39.77z" fill="#f58536"/><path d="M1900.84 1422.18h2.82v35.02h-2.82v-35.02zM1906.04 1422.18h2.83v35.02h-2.83v-35.02zM1911.25 1422.18h2.83v35.02h-2.83v-35.02zM1890.42 1422.18h2.83v35.02h-2.83v-35.02zM1895.63 1422.18h2.82v35.02h-2.82v-35.02zM1916.46 1422.18h2.83v35.02h-2.84v-35.02zM1921.67 1422.18h2.82v35.02h-2.83v-35.02zM1926.88 1422.18h2.82v35.02h-2.82v-35.02zM1932.08 1422.18h2.82v35.02h-2.82v-35.02zM1937.3 1422.18h2.8v35.02h-2.8v-35.02zM1942.5 1422.18h2.82v35.02h-2.83v-35.02z" fill="#fbbf93"/><path d="M1891.16 1423.13h2.1v34.07h-2.1v-34.07zM1896.37 1423.13h2.1v34.07h-2.1v-34.07zM1901.57 1423.13h2.1v34.07h-2.1v-34.07zM1906.78 1423.13h2.1v34.07h-2.1v-34.07zM1911.98 1423.13h2.1v34.07h-2.1v-34.07zM1917.2 1423.13h2.1v34.07h-2.1v-34.07zM1922.4 1423.13h2.1v34.07h-2.1v-34.07zM1927.6 1423.13h2.1v34.07h-2.1v-34.07zM1932.82 1423.13h2.1v34.07h-2.1v-34.07zM1938.02 1423.13h2.1v34.07h-2.1v-34.07zM1943.23 1423.13h2.1v34.07h-2.1v-34.07z" fill="#fff"/><path d="M1231.23 1640h80v80h-80v-80z" stroke="#fff" stroke-opacity="0" stroke-width="2" fill="#3b48cc"/><path d="M1282.9 1670.1c0-3.07-6.06-4.5-11.72-4.5-5.67 0-11.74 1.43-11.74 4.5 0 .18.02.3.05.47v19.24c-.06 3.24 6.03 4.6 11.72 4.6 5.72 0 11.74-1.42 11.74-4.5v-19.8zm-11.7-2.38c6.2 0 9.6 1.7 9.6 2.4 0 .68-3.37 2.38-9.6 2.38-6.26 0-9.6-1.67-9.6-2.4 0-.68 3.37-2.38 9.6-2.38zm9.6 22.18c0 .7-3.37 2.36-9.6 2.36-6.23 0-9.6-1.67-9.6-2.36v-3.37c2.24 1.24 6.02 1.8 9.6 1.8 3.57 0 7.3-.56 9.6-1.77zm0-6.08c0 .7-3.37 2.4-9.6 2.4-6.26 0-9.6-1.7-9.6-2.4h.03v-4.06c2.25 1.2 6.02 1.8 9.6 1.8 3.57 0 7.3-.6 9.6-1.77zm0-6.8c0 .7-3.37 2.42-9.6 2.42-6.26 0-9.6-1.73-9.6-2.42h.03v-4.14c2.28 1.2 6 1.75 9.6 1.75 3.6 0 7.38-.57 9.6-1.8zM1248.2 1704.55h7.02v2.13h-9.6c-.58 0-1.06-.48-1.06-1.07v-9.6h2.13v7.02l8-8 1.5 1.5zM1297.9 1696v9.6c0 .6-.48 1.08-1.08 1.08h-9.6v-2.14h7.03l-7.88-7.9 1.5-1.5 7.9 7.88v-7zM1297.9 1654.4v9.6h-2.14v-7.03l-7.88 7.88-1.5-1.5 7.86-7.88h-7.02v-2.13h9.6c.6 0 1.07.48 1.07 1.07zM1256.2 1663.47l-1.5 1.5-8-8v7.02h-2.14v-9.6c0-.6.48-1.08 1.07-1.08h9.6v2.13h-7.03zM1254.86 1689.56c-6.5-2.34-10.25-5.94-10.25-9.83 0-3.9 3.75-7.46 10.26-9.82l.73 2c-5.54 2.02-8.86 4.92-8.86 7.83 0 2.9 3.32 5.82 8.85 7.82zM1287 1689.8l-.7-2.04c5.93-2 9.46-5 9.46-8.03 0-3.03-3.53-6.03-9.45-8.04l.7-2.03c6.92 2.34 10.9 6.02 10.9 10.06 0 4.05-3.98 7.7-10.9 10.06z" stroke="#fff" stroke-opacity="0" stroke-width="2" fill="#fff"/><g><use xlink:href="#J" transform="matrix(1,0,0,1,1201.2261114443177,1729) translate(15.574999999999996 14.4)"/><use xlink:href="#K" transform="matrix(1,0,0,1,1201.2261114443177,1729) translate(86.525 14.4)"/></g><path d="M1930.22 1640h80v80h-80v-80z" stroke="#fff" stroke-opacity="0" stroke-width="2" fill="#3b48cc"/><path d="M1981.9 1670.1c0-3.07-6.06-4.5-11.73-4.5-5.67 0-11.74 1.43-11.74 4.5 0 .18.02.3.05.47v19.24c-.05 3.24 6.04 4.6 11.73 4.6 5.73 0 11.75-1.42 11.75-4.5v-19.8zm-11.7-2.38c6.2 0 9.6 1.7 9.6 2.4 0 .68-3.38 2.38-9.6 2.38-6.27 0-9.6-1.67-9.6-2.4 0-.68 3.36-2.38 9.6-2.38zm9.6 22.18c0 .7-3.38 2.36-9.6 2.36-6.24 0-9.6-1.67-9.6-2.36v-3.37c2.23 1.24 6.02 1.8 9.6 1.8 3.57 0 7.3-.56 9.6-1.77zm0-6.08c0 .7-3.38 2.4-9.6 2.4-6.27 0-9.6-1.7-9.6-2.4h.02v-4.06c2.26 1.2 6.02 1.8 9.6 1.8 3.57 0 7.3-.6 9.6-1.77zm0-6.8c0 .7-3.38 2.42-9.6 2.42-6.27 0-9.6-1.73-9.6-2.42h.02v-4.14c2.28 1.2 6 1.75 9.6 1.75 3.6 0 7.38-.57 9.6-1.8zM1947.2 1704.55h7v2.13h-9.58c-.6 0-1.07-.48-1.07-1.07v-9.6h2.13v7.02l8-8 1.5 1.5zM1996.9 1696v9.6c0 .6-.5 1.08-1.1 1.08h-9.58v-2.14h7.02l-7.87-7.9 1.5-1.5 7.88 7.88v-7zM1996.9 1654.4v9.6h-2.15v-7.03l-7.88 7.88-1.5-1.5 7.86-7.88h-7v-2.13h9.58c.6 0 1.1.48 1.1 1.07zM1955.18 1663.47l-1.5 1.5-8-8v7.02h-2.13v-9.6c0-.6.48-1.08 1.07-1.08h9.6v2.13h-7.03zM1953.86 1689.56c-6.52-2.34-10.25-5.94-10.25-9.83 0-3.9 3.74-7.46 10.26-9.82l.72 2c-5.53 2.02-8.85 4.92-8.85 7.83 0 2.9 3.32 5.82 8.85 7.82zM1985.98 1689.8l-.68-2.04c5.92-2 9.45-5 9.45-8.03 0-3.03-3.53-6.03-9.45-8.04l.68-2.03c6.93 2.34 10.9 6.02 10.9 10.06 0 4.05-3.97 7.7-10.9 10.06z" stroke="#fff" stroke-opacity="0" stroke-width="2" fill="#fff"/><g><use xlink:href="#J" transform="matrix(1,0,0,1,1900.218833445514,1729) translate(15.574999999999996 14.4)"/><use xlink:href="#K" transform="matrix(1,0,0,1,1900.218833445514,1729) translate(86.525 14.4)"/></g><defs><path fill="#333" d="M24-248c93 1 206-16 204 79-1 75-69 88-152 82V0H24v-248zm52 121c47 0 100 7 100-41 0-47-54-39-100-39v80" id="L"/><path fill="#333" d="M135-150c-39-12-60 13-60 57V0H25l-1-190h47c2 13-1 29 3 40 6-28 27-53 61-41v41" id="M"/><path fill="#333" d="M25-224v-37h50v37H25zM25 0v-190h50V0H25" id="N"/><path fill="#333" d="M128 0H69L1-190h53L99-40l48-150h52" id="O"/><path fill="#333" d="M133-34C117-15 103 5 69 4 32 3 11-16 11-54c-1-60 55-63 116-61 1-26-3-47-28-47-18 1-26 9-28 27l-52-2c7-38 36-58 82-57s74 22 75 68l1 82c-1 14 12 18 25 15v27c-30 8-71 5-69-32zm-48 3c29 0 43-24 42-57-32 0-66-3-65 30 0 17 8 27 23 27" id="P"/><path fill="#333" d="M115-3C79 11 28 4 28-45v-112H4v-33h27l15-45h31v45h36v33H77v99c-1 23 16 31 38 25v30" id="Q"/><path fill="#333" d="M185-48c-13 30-37 53-82 52C43 2 14-33 14-96s30-98 90-98c62 0 83 45 84 108H66c0 31 8 55 39 56 18 0 30-7 34-22zm-45-69c5-46-57-63-70-21-2 6-4 13-4 21h74" id="R"/><g id="a"><use transform="matrix(0.04320987654320988,0,0,0.04320987654320988,0,0)" xlink:href="#L"/><use transform="matrix(0.04320987654320988,0,0,0.04320987654320988,10.370370370370372,0)" xlink:href="#M"/><use transform="matrix(0.04320987654320988,0,0,0.04320987654320988,16.419753086419753,0)" xlink:href="#N"/><use transform="matrix(0.04320987654320988,0,0,0.04320987654320988,20.74074074074074,0)" xlink:href="#O"/><use transform="matrix(0.04320987654320988,0,0,0.04320987654320988,29.382716049382715,0)" xlink:href="#P"/><use transform="matrix(0.04320987654320988,0,0,0.04320987654320988,38.02469135802469,0)" xlink:href="#Q"/><use transform="matrix(0.04320987654320988,0,0,0.04320987654320988,43.166666666666664,0)" xlink:href="#R"/></g><path fill="#333" d="M199 0l-22-63H83L61 0H9l90-248h61L250 0h-51zm-33-102l-36-108c-10 38-24 72-36 108h72" id="S"/><path fill="#333" d="M135-194c53 0 70 44 70 98 0 56-19 98-73 100-31 1-45-17-59-34 3 33 2 69 2 105H25l-1-265h48c2 10 0 23 3 31 11-24 29-35 60-35zM114-30c33 0 39-31 40-66 0-38-9-64-40-64-56 0-55 130 0 130" id="T"/><g id="b"><use transform="matrix(0.04320987654320988,0,0,0.04320987654320988,0,0)" xlink:href="#S"/><use transform="matrix(0.04320987654320988,0,0,0.04320987654320988,11.19135802469136,0)" xlink:href="#T"/><use transform="matrix(0.04320987654320988,0,0,0.04320987654320988,20.654320987654323,0)" xlink:href="#T"/></g><path fill="#333" d="M169-182c-1-43-94-46-97-3 18 66 151 10 154 114 3 95-165 93-204 36-6-8-10-19-12-30l50-8c3 46 112 56 116 5-17-69-150-10-154-114-4-87 153-88 188-35 5 8 8 18 10 28" id="U"/><path fill="#333" d="M85 4C-2 5 27-109 22-190h50c7 57-23 150 33 157 60-5 35-97 40-157h50l1 190h-47c-2-12 1-28-3-38-12 25-28 42-61 42" id="V"/><path fill="#333" d="M135-194c52 0 70 43 70 98 0 56-19 99-73 100-30 1-46-15-58-35L72 0H24l1-261h50v104c11-23 29-37 60-37zM114-30c31 0 40-27 40-66 0-37-7-63-39-63s-41 28-41 65c0 36 8 64 40 64" id="W"/><path fill="#333" d="M135-194c87-1 58 113 63 194h-50c-7-57 23-157-34-157-59 0-34 97-39 157H25l-1-190h47c2 12-1 28 3 38 12-26 28-41 61-42" id="X"/><g id="c"><use transform="matrix(0.04320987654320988,0,0,0.04320987654320988,0,0)" xlink:href="#U"/><use transform="matrix(0.04320987654320988,0,0,0.04320987654320988,10.370370370370372,0)" xlink:href="#V"/><use transform="matrix(0.04320987654320988,0,0,0.04320987654320988,19.833333333333336,0)" xlink:href="#W"/><use transform="matrix(0.04320987654320988,0,0,0.04320987654320988,29.296296296296298,0)" xlink:href="#X"/><use transform="matrix(0.04320987654320988,0,0,0.04320987654320988,38.75925925925926,0)" xlink:href="#R"/><use transform="matrix(0.04320987654320988,0,0,0.04320987654320988,47.40123456790123,0)" xlink:href="#Q"/></g><use transform="matrix(0.04320987654320988,0,0,0.04320987654320988,0,0)" xlink:href="#S" id="d"/><path fill="#333" d="M147 0H94L2-248h55l64 206c17-72 42-137 63-206h54" id="Y"/><path fill="#333" d="M67-125c0 53 21 87 73 88 37 1 54-22 65-47l45 17C233-25 199 4 140 4 58 4 20-42 15-125 8-235 124-281 211-232c18 10 29 29 36 50l-46 12c-8-25-30-41-62-41-52 0-71 34-72 86" id="Z"/><g id="e"><use transform="matrix(0.04320987654320988,0,0,0.04320987654320988,0,0)" xlink:href="#Y"/><use transform="matrix(0.04320987654320988,0,0,0.04320987654320988,10.370370370370372,0)" xlink:href="#L"/><use transform="matrix(0.04320987654320988,0,0,0.04320987654320988,20.740740740740744,0)" xlink:href="#Z"/></g><path fill="#333" d="M25 0v-261h50V0H25" id="aa"/><path fill="#333" d="M190-63c-7 42-38 67-86 67-59 0-84-38-90-98-12-110 154-137 174-36l-49 2c-2-19-15-32-35-32-30 0-35 28-38 64-6 74 65 87 74 30" id="ab"/><g id="g"><use transform="matrix(0.04320987654320988,0,0,0.04320987654320988,0,0)" xlink:href="#L"/><use transform="matrix(0.04320987654320988,0,0,0.04320987654320988,10.370370370370372,0)" xlink:href="#V"/><use transform="matrix(0.04320987654320988,0,0,0.04320987654320988,19.833333333333336,0)" xlink:href="#W"/><use transform="matrix(0.04320987654320988,0,0,0.04320987654320988,29.296296296296298,0)" xlink:href="#aa"/><use transform="matrix(0.04320987654320988,0,0,0.04320987654320988,33.617283950617285,0)" xlink:href="#N"/><use transform="matrix(0.04320987654320988,0,0,0.04320987654320988,37.93827160493827,0)" xlink:href="#ab"/></g><g id="h"><use transform="matrix(0.04320987654320988,0,0,0.04320987654320988,0,0)" xlink:href="#U"/><use transform="matrix(0.04320987654320988,0,0,0.04320987654320988,10.370370370370372,0)" xlink:href="#V"/><use transform="matrix(0.04320987654320988,0,0,0.04320987654320988,19.833333333333336,0)" xlink:href="#W"/><use transform="matrix(0.04320987654320988,0,0,0.04320987654320988,29.296296296296298,0)" xlink:href="#X"/><use transform="matrix(0.04320987654320988,0,0,0.04320987654320988,38.75925925925926,0)" xlink:href="#R"/><use transform="matrix(0.04320987654320988,0,0,0.04320987654320988,47.40123456790123,0)" xlink:href="#Q"/></g><path fill="#333" d="M24-248c120-7 223 5 221 122C244-46 201 0 124 0H24v-248zM76-40c74 7 117-18 117-86 0-67-45-88-117-82v168" id="ac"/><path fill="#333" d="M182-130c37 4 62 22 62 59C244 23 116-4 24 0v-248c84 5 203-23 205 63 0 31-19 50-47 55zM76-148c40-3 101 13 101-30 0-44-60-28-101-31v61zm0 110c48-3 116 14 116-37 0-48-69-32-116-35v72" id="ad"/><g id="i"><use transform="matrix(0.04320987654320988,0,0,0.04320987654320988,0,0)" xlink:href="#ac"/><use transform="matrix(0.04320987654320988,0,0,0.04320987654320988,11.19135802469136,0)" xlink:href="#ad"/></g><use transform="matrix(0.04320987654320988,0,0,0.04320987654320988,0,0)" xlink:href="#ad" id="j"/><path fill="#d86613" d="M30 0v-248h187v28H63v79h144v27H63v87h162V0H30" id="ae"/><path fill="#d86613" d="M212-179c-10-28-35-45-73-45-59 0-87 40-87 99 0 60 29 101 89 101 43 0 62-24 78-52l27 14C228-24 195 4 139 4 59 4 22-46 18-125c-6-104 99-153 187-111 19 9 31 26 39 46" id="af"/><path fill="#d86613" d="M185-189c-5-48-123-54-124 2 14 75 158 14 163 119 3 78-121 87-175 55-17-10-28-26-33-46l33-7c5 56 141 63 141-1 0-78-155-14-162-118-5-82 145-84 179-34 5 7 8 16 11 25" id="ag"/><g id="k"><use transform="matrix(0.05,0,0,0.05,0,0)" xlink:href="#ae"/><use transform="matrix(0.05,0,0,0.05,12,0)" xlink:href="#af"/><use transform="matrix(0.05,0,0,0.05,24.950000000000003,0)" xlink:href="#ag"/></g><path fill="#d86613" d="M63-220v92h138v28H63V0H30v-248h175v28H63" id="ah"/><path fill="#d86613" d="M141-36C126-15 110 5 73 4 37 3 15-17 15-53c-1-64 63-63 125-63 3-35-9-54-41-54-24 1-41 7-42 31l-33-3c5-37 33-52 76-52 45 0 72 20 72 64v82c-1 20 7 32 28 27v20c-31 9-61-2-59-35zM48-53c0 20 12 33 32 33 41-3 63-29 60-74-43 2-92-5-92 41" id="ai"/><path fill="#d86613" d="M114-163C36-179 61-72 57 0H25l-1-190h30c1 12-1 29 2 39 6-27 23-49 58-41v29" id="aj"/><path fill="#d86613" d="M177-190C167-65 218 103 67 71c-23-6-38-20-44-43l32-5c15 47 100 32 89-28v-30C133-14 115 1 83 1 29 1 15-40 15-95c0-56 16-97 71-98 29-1 48 16 59 35 1-10 0-23 2-32h30zM94-22c36 0 50-32 50-73 0-42-14-75-50-75-39 0-46 34-46 75s6 73 46 73" id="ak"/><path fill="#d86613" d="M59-47c-2 24 18 29 38 22v24C64 9 27 4 27-40v-127H5v-23h24l9-43h21v43h35v23H59v120" id="al"/><path fill="#d86613" d="M100-194c63 0 86 42 84 106H49c0 40 14 67 53 68 26 1 43-12 49-29l28 8c-11 28-37 45-77 45C44 4 14-33 15-96c1-61 26-98 85-98zm52 81c6-60-76-77-97-28-3 7-6 17-6 28h103" id="am"/><g id="l"><use transform="matrix(0.05,0,0,0.05,0,0)" xlink:href="#ah"/><use transform="matrix(0.05,0,0,0.05,10.950000000000001,0)" xlink:href="#ai"/><use transform="matrix(0.05,0,0,0.05,20.950000000000003,0)" xlink:href="#aj"/><use transform="matrix(0.05,0,0,0.05,26.900000000000002,0)" xlink:href="#ak"/><use transform="matrix(0.05,0,0,0.05,36.900000000000006,0)" xlink:href="#ai"/><use transform="matrix(0.05,0,0,0.05,46.900000000000006,0)" xlink:href="#al"/><use transform="matrix(0.05,0,0,0.05,51.900000000000006,0)" xlink:href="#am"/></g><path fill="#d86613" d="M100-194c62-1 85 37 85 99 1 63-27 99-86 99S16-35 15-95c0-66 28-99 85-99zM99-20c44 1 53-31 53-75 0-43-8-75-51-75s-53 32-53 75 10 74 51 75" id="an"/><path fill="#d86613" d="M117-194c89-4 53 116 60 194h-32v-121c0-31-8-49-39-48C34-167 62-67 57 0H25l-1-190h30c1 10-1 24 2 32 11-22 29-35 61-36" id="ao"/><path fill="#d86613" d="M24-231v-30h32v30H24zM24 0v-190h32V0H24" id="ap"/><g id="m"><use transform="matrix(0.05,0,0,0.05,0,0)" xlink:href="#af"/><use transform="matrix(0.05,0,0,0.05,12.950000000000001,0)" xlink:href="#an"/><use transform="matrix(0.05,0,0,0.05,22.950000000000003,0)" xlink:href="#ao"/><use transform="matrix(0.05,0,0,0.05,32.95,0)" xlink:href="#al"/><use transform="matrix(0.05,0,0,0.05,37.95,0)" xlink:href="#ai"/><use transform="matrix(0.05,0,0,0.05,47.95,0)" xlink:href="#ap"/><use transform="matrix(0.05,0,0,0.05,51.900000000000006,0)" xlink:href="#ao"/><use transform="matrix(0.05,0,0,0.05,61.900000000000006,0)" xlink:href="#am"/><use transform="matrix(0.05,0,0,0.05,71.9,0)" xlink:href="#aj"/></g><path fill="#333" d="M123 10C108 53 80 86 19 72V37c35 8 53-11 59-39L3-190h52l48 148c12-52 28-100 44-148h51" id="aq"/><g id="n"><use transform="matrix(0.04320987654320988,0,0,0.04320987654320988,0,0)" xlink:href="#S"/><use transform="matrix(0.04320987654320988,0,0,0.04320987654320988,10.629629629629632,0)" xlink:href="#O"/><use transform="matrix(0.04320987654320988,0,0,0.04320987654320988,19.271604938271608,0)" xlink:href="#P"/><use transform="matrix(0.04320987654320988,0,0,0.04320987654320988,27.913580246913583,0)" xlink:href="#N"/><use transform="matrix(0.04320987654320988,0,0,0.04320987654320988,32.23456790123457,0)" xlink:href="#aa"/><use transform="matrix(0.04320987654320988,0,0,0.04320987654320988,36.55555555555556,0)" xlink:href="#P"/><use transform="matrix(0.04320987654320988,0,0,0.04320987654320988,45.19753086419754,0)" xlink:href="#W"/><use transform="matrix(0.04320987654320988,0,0,0.04320987654320988,54.66049382716049,0)" xlink:href="#N"/><use transform="matrix(0.04320987654320988,0,0,0.04320987654320988,58.98148148148148,0)" xlink:href="#aa"/><use transform="matrix(0.04320987654320988,0,0,0.04320987654320988,63.30246913580247,0)" xlink:href="#N"/><use transform="matrix(0.04320987654320988,0,0,0.04320987654320988,67.62345679012346,0)" xlink:href="#Q"/><use transform="matrix(0.04320987654320988,0,0,0.04320987654320988,72.76543209876543,0)" xlink:href="#aq"/></g><path fill="#333" d="M210 0H11v-37l134-170H24v-41h178v36L68-41h142V0" id="ar"/><path fill="#333" d="M110-194c64 0 96 36 96 99 0 64-35 99-97 99-61 0-95-36-95-99 0-62 34-99 96-99zm-1 164c35 0 45-28 45-65 0-40-10-65-43-65-34 0-45 26-45 65 0 36 10 65 43 65" id="as"/><g id="o"><use transform="matrix(0.04320987654320988,0,0,0.04320987654320988,0,0)" xlink:href="#ar"/><use transform="matrix(0.04320987654320988,0,0,0.04320987654320988,9.462962962962964,0)" xlink:href="#as"/><use transform="matrix(0.04320987654320988,0,0,0.04320987654320988,18.925925925925927,0)" xlink:href="#X"/><use transform="matrix(0.04320987654320988,0,0,0.04320987654320988,28.388888888888893,0)" xlink:href="#R"/></g><g id="p"><use transform="matrix(0.04320987654320988,0,0,0.04320987654320988,0,0)" xlink:href="#U"/><use transform="matrix(0.04320987654320988,0,0,0.04320987654320988,10.370370370370372,0)" xlink:href="#V"/><use transform="matrix(0.04320987654320988,0,0,0.04320987654320988,19.833333333333336,0)" xlink:href="#W"/><use transform="matrix(0.04320987654320988,0,0,0.04320987654320988,29.296296296296298,0)" xlink:href="#X"/><use transform="matrix(0.04320987654320988,0,0,0.04320987654320988,38.75925925925926,0)" xlink:href="#R"/><use transform="matrix(0.04320987654320988,0,0,0.04320987654320988,47.40123456790123,0)" xlink:href="#Q"/></g><g id="q"><use transform="matrix(0.04320987654320988,0,0,0.04320987654320988,0,0)" xlink:href="#L"/><use transform="matrix(0.04320987654320988,0,0,0.04320987654320988,10.370370370370372,0)" xlink:href="#M"/><use transform="matrix(0.04320987654320988,0,0,0.04320987654320988,16.419753086419753,0)" xlink:href="#N"/><use transform="matrix(0.04320987654320988,0,0,0.04320987654320988,20.74074074074074,0)" xlink:href="#O"/><use transform="matrix(0.04320987654320988,0,0,0.04320987654320988,29.382716049382715,0)" xlink:href="#P"/><use transform="matrix(0.04320987654320988,0,0,0.04320987654320988,38.02469135802469,0)" xlink:href="#Q"/><use transform="matrix(0.04320987654320988,0,0,0.04320987654320988,43.166666666666664,0)" xlink:href="#R"/></g><g id="r"><use transform="matrix(0.04320987654320988,0,0,0.04320987654320988,0,0)" xlink:href="#ac"/><use transform="matrix(0.04320987654320988,0,0,0.04320987654320988,11.19135802469136,0)" xlink:href="#ad"/></g><g id="s"><use transform="matrix(0.04320987654320988,0,0,0.04320987654320988,0,0)" xlink:href="#U"/><use transform="matrix(0.04320987654320988,0,0,0.04320987654320988,10.370370370370372,0)" xlink:href="#V"/><use transform="matrix(0.04320987654320988,0,0,0.04320987654320988,19.833333333333336,0)" xlink:href="#W"/><use transform="matrix(0.04320987654320988,0,0,0.04320987654320988,29.296296296296298,0)" xlink:href="#X"/><use transform="matrix(0.04320987654320988,0,0,0.04320987654320988,38.75925925925926,0)" xlink:href="#R"/><use transform="matrix(0.04320987654320988,0,0,0.04320987654320988,47.40123456790123,0)" xlink:href="#Q"/></g><use transform="matrix(0.04320987654320988,0,0,0.04320987654320988,0,0)" xlink:href="#Z" id="t"/><g id="u"><use transform="matrix(0.04320987654320988,0,0,0.04320987654320988,0,0)" xlink:href="#S"/><use transform="matrix(0.04320987654320988,0,0,0.04320987654320988,10.629629629629632,0)" xlink:href="#O"/><use transform="matrix(0.04320987654320988,0,0,0.04320987654320988,19.271604938271608,0)" xlink:href="#P"/><use transform="matrix(0.04320987654320988,0,0,0.04320987654320988,27.913580246913583,0)" xlink:href="#N"/><use transform="matrix(0.04320987654320988,0,0,0.04320987654320988,32.23456790123457,0)" xlink:href="#aa"/><use transform="matrix(0.04320987654320988,0,0,0.04320987654320988,36.55555555555556,0)" xlink:href="#P"/><use transform="matrix(0.04320987654320988,0,0,0.04320987654320988,45.19753086419754,0)" xlink:href="#W"/><use transform="matrix(0.04320987654320988,0,0,0.04320987654320988,54.66049382716049,0)" xlink:href="#N"/><use transform="matrix(0.04320987654320988,0,0,0.04320987654320988,58.98148148148148,0)" xlink:href="#aa"/><use transform="matrix(0.04320987654320988,0,0,0.04320987654320988,63.30246913580247,0)" xlink:href="#N"/><use transform="matrix(0.04320987654320988,0,0,0.04320987654320988,67.62345679012346,0)" xlink:href="#Q"/><use transform="matrix(0.04320987654320988,0,0,0.04320987654320988,72.76543209876543,0)" xlink:href="#aq"/></g><g id="v"><use transform="matrix(0.04320987654320988,0,0,0.04320987654320988,0,0)" xlink:href="#ar"/><use transform="matrix(0.04320987654320988,0,0,0.04320987654320988,9.462962962962964,0)" xlink:href="#as"/><use transform="matrix(0.04320987654320988,0,0,0.04320987654320988,18.925925925925927,0)" xlink:href="#X"/><use transform="matrix(0.04320987654320988,0,0,0.04320987654320988,28.388888888888893,0)" xlink:href="#R"/></g><g id="w"><use transform="matrix(0.04320987654320988,0,0,0.04320987654320988,0,0)" xlink:href="#L"/><use transform="matrix(0.04320987654320988,0,0,0.04320987654320988,10.370370370370372,0)" xlink:href="#V"/><use transform="matrix(0.04320987654320988,0,0,0.04320987654320988,19.833333333333336,0)" xlink:href="#W"/><use transform="matrix(0.04320987654320988,0,0,0.04320987654320988,29.296296296296298,0)" xlink:href="#aa"/><use transform="matrix(0.04320987654320988,0,0,0.04320987654320988,33.617283950617285,0)" xlink:href="#N"/><use transform="matrix(0.04320987654320988,0,0,0.04320987654320988,37.93827160493827,0)" xlink:href="#ab"/></g><g id="x"><use transform="matrix(0.04320987654320988,0,0,0.04320987654320988,0,0)" xlink:href="#U"/><use transform="matrix(0.04320987654320988,0,0,0.04320987654320988,10.370370370370372,0)" xlink:href="#V"/><use transform="matrix(0.04320987654320988,0,0,0.04320987654320988,19.833333333333336,0)" xlink:href="#W"/><use transform="matrix(0.04320987654320988,0,0,0.04320987654320988,29.296296296296298,0)" xlink:href="#X"/><use transform="matrix(0.04320987654320988,0,0,0.04320987654320988,38.75925925925926,0)" xlink:href="#R"/><use transform="matrix(0.04320987654320988,0,0,0.04320987654320988,47.40123456790123,0)" xlink:href="#Q"/></g><g id="y"><use transform="matrix(0.04320987654320988,0,0,0.04320987654320988,0,0)" xlink:href="#S"/><use transform="matrix(0.04320987654320988,0,0,0.04320987654320988,11.19135802469136,0)" xlink:href="#T"/><use transform="matrix(0.04320987654320988,0,0,0.04320987654320988,20.654320987654323,0)" xlink:href="#T"/></g><use transform="matrix(0.04320987654320988,0,0,0.04320987654320988,0,0)" xlink:href="#ad" id="z"/><path fill="#333" d="M33 0v-248h34V0H33" id="at"/><path fill="#333" d="M143 4C61 4 22-44 18-125c-5-107 100-154 193-111 17 8 29 25 37 43l-32 9c-13-25-37-40-76-40-61 0-88 39-88 99 0 61 29 100 91 101 35 0 62-11 79-27v-45h-74v-28h105v86C228-13 192 4 143 4" id="au"/><path fill="#333" d="M266 0h-40l-56-210L115 0H75L2-248h35L96-30l15-64 43-154h32l59 218 59-218h35" id="av"/><g id="A"><use transform="matrix(0.04320987654320988,0,0,0.04320987654320988,0,0)" xlink:href="#at"/><use transform="matrix(0.04320987654320988,0,0,0.04320987654320988,4.320987654320988,0)" xlink:href="#au"/><use transform="matrix(0.04320987654320988,0,0,0.04320987654320988,16.419753086419753,0)" xlink:href="#av"/></g><path fill="#333" d="M190 0L58-211 59 0H30v-248h39L202-35l-2-213h31V0h-41" id="aw"/><path fill="#333" d="M205 0l-28-72H64L36 0H1l101-248h38L239 0h-34zm-38-99l-47-123c-12 45-31 82-46 123h93" id="ax"/><path fill="#333" d="M127-220V0H93v-220H8v-28h204v28h-85" id="ay"/><g id="B"><use transform="matrix(0.04320987654320988,0,0,0.04320987654320988,0,0)" xlink:href="#aw"/><use transform="matrix(0.04320987654320988,0,0,0.04320987654320988,11.19135802469136,0)" xlink:href="#ax"/><use transform="matrix(0.04320987654320988,0,0,0.04320987654320988,20.395061728395063,0)" xlink:href="#ay"/></g><path fill="#333" d="M177-190C167-65 218 103 67 71c-23-6-38-20-44-43l32-5c15 47 100 32 89-28v-30C133-14 115 1 83 1 29 1 15-40 15-95c0-56 16-97 71-98 29-1 48 16 59 35 1-10 0-23 2-32h30zM94-22c36 0 50-32 50-73 0-42-14-75-50-75-39 0-46 34-46 75s6 73 46 73" id="az"/><path fill="#333" d="M141-36C126-15 110 5 73 4 37 3 15-17 15-53c-1-64 63-63 125-63 3-35-9-54-41-54-24 1-41 7-42 31l-33-3c5-37 33-52 76-52 45 0 72 20 72 64v82c-1 20 7 32 28 27v20c-31 9-61-2-59-35zM48-53c0 20 12 33 32 33 41-3 63-29 60-74-43 2-92-5-92 41" id="aA"/><path fill="#333" d="M59-47c-2 24 18 29 38 22v24C64 9 27 4 27-40v-127H5v-23h24l9-43h21v43h35v23H59v120" id="aB"/><path fill="#333" d="M100-194c63 0 86 42 84 106H49c0 40 14 67 53 68 26 1 43-12 49-29l28 8c-11 28-37 45-77 45C44 4 14-33 15-96c1-61 26-98 85-98zm52 81c6-60-76-77-97-28-3 7-6 17-6 28h103" id="aC"/><path fill="#333" d="M206 0h-36l-40-164L89 0H53L-1-190h32L70-26l43-164h34l41 164 42-164h31" id="aD"/><path fill="#333" d="M179-190L93 31C79 59 56 82 12 73V49c39 6 53-20 64-50L1-190h34L92-34l54-156h33" id="aE"/><g id="C"><use transform="matrix(0.04320987654320988,0,0,0.04320987654320988,0,0)" xlink:href="#az"/><use transform="matrix(0.04320987654320988,0,0,0.04320987654320988,8.641975308641976,0)" xlink:href="#aA"/><use transform="matrix(0.04320987654320988,0,0,0.04320987654320988,17.283950617283953,0)" xlink:href="#aB"/><use transform="matrix(0.04320987654320988,0,0,0.04320987654320988,21.60493827160494,0)" xlink:href="#aC"/><use transform="matrix(0.04320987654320988,0,0,0.04320987654320988,30.24691358024692,0)" xlink:href="#aD"/><use transform="matrix(0.04320987654320988,0,0,0.04320987654320988,41.43827160493828,0)" xlink:href="#aA"/><use transform="matrix(0.04320987654320988,0,0,0.04320987654320988,50.080246913580254,0)" xlink:href="#aE"/></g><path d="M205 0l-28-72H64L36 0H1l101-248h38L239 0h-34zm-38-99l-47-123c-12 45-31 82-46 123h93" id="aF"/><path d="M30 0v-248h33v221h125V0H30" id="aG"/><path d="M160-131c35 5 61 23 61 61C221 17 115-2 30 0v-248c76 3 177-17 177 60 0 33-19 50-47 57zm-97-11c50-1 110 9 110-42 0-47-63-36-110-37v79zm0 115c55-2 124 14 124-45 0-56-70-42-124-44v89" id="aH"/><g id="D"><use transform="matrix(0.05,0,0,0.05,0,0)" xlink:href="#aF"/><use transform="matrix(0.05,0,0,0.05,12,0)" xlink:href="#aG"/><use transform="matrix(0.05,0,0,0.05,22,0)" xlink:href="#aH"/></g><path d="M233-177c-1 41-23 64-60 70L243 0h-38l-65-103H63V0H30v-248c88 3 205-21 203 71zM63-129c60-2 137 13 137-47 0-61-80-42-137-45v92" id="aI"/><path d="M100-194c62-1 85 37 85 99 1 63-27 99-86 99S16-35 15-95c0-66 28-99 85-99zM99-20c44 1 53-31 53-75 0-43-8-75-51-75s-53 32-53 75 10 74 51 75" id="aJ"/><path d="M84 4C-5 8 30-112 23-190h32v120c0 31 7 50 39 49 72-2 45-101 50-169h31l1 190h-30c-1-10 1-25-2-33-11 22-28 36-60 37" id="aK"/><path d="M59-47c-2 24 18 29 38 22v24C64 9 27 4 27-40v-127H5v-23h24l9-43h21v43h35v23H59v120" id="aL"/><path d="M100-194c63 0 86 42 84 106H49c0 40 14 67 53 68 26 1 43-12 49-29l28 8c-11 28-37 45-77 45C44 4 14-33 15-96c1-61 26-98 85-98zm52 81c6-60-76-77-97-28-3 7-6 17-6 28h103" id="aM"/><path d="M54-142c48-35 137-8 131 61C196 18 31 33 14-55l32-4c7 23 22 37 52 37 35-1 51-22 54-58 4-55-73-65-99-34H22l8-134h141v27H59" id="aN"/><path d="M126-127c33 6 58 20 58 59 0 88-139 92-164 29-3-8-5-16-6-25l32-3c6 27 21 44 54 44 32 0 52-15 52-46 0-38-36-46-79-43v-28c39 1 72-4 72-42 0-27-17-43-46-43-28 0-47 15-49 41l-32-3c6-42 35-63 81-64 48-1 79 21 79 65 0 36-21 52-52 59" id="aO"/><g id="E"><use transform="matrix(0.05,0,0,0.05,0,0)" xlink:href="#aI"/><use transform="matrix(0.05,0,0,0.05,12.950000000000001,0)" xlink:href="#aJ"/><use transform="matrix(0.05,0,0,0.05,22.950000000000003,0)" xlink:href="#aK"/><use transform="matrix(0.05,0,0,0.05,32.95,0)" xlink:href="#aL"/><use transform="matrix(0.05,0,0,0.05,37.95,0)" xlink:href="#aM"/><use transform="matrix(0.05,0,0,0.05,47.95,0)" xlink:href="#aN"/><use transform="matrix(0.05,0,0,0.05,57.95,0)" xlink:href="#aO"/></g><path d="M210-169c-67 3-38 105-44 169h-31v-121c0-29-5-50-35-48C34-165 62-65 56 0H25l-1-190h30c1 10-1 24 2 32 10-44 99-50 107 0 11-21 27-35 58-36 85-2 47 119 55 194h-31v-121c0-29-5-49-35-48" id="aP"/><path d="M141-36C126-15 110 5 73 4 37 3 15-17 15-53c-1-64 63-63 125-63 3-35-9-54-41-54-24 1-41 7-42 31l-33-3c5-37 33-52 76-52 45 0 72 20 72 64v82c-1 20 7 32 28 27v20c-31 9-61-2-59-35zM48-53c0 20 12 33 32 33 41-3 63-29 60-74-43 2-92-5-92 41" id="aQ"/><path d="M9 0v-24l116-142H16v-24h144v24L44-24h123V0H9" id="aR"/><path d="M117-194c89-4 53 116 60 194h-32v-121c0-31-8-49-39-48C34-167 62-67 57 0H25l-1-190h30c1 10-1 24 2 32 11-22 29-35 61-36" id="aS"/><g id="F"><use transform="matrix(0.05,0,0,0.05,0,0)" xlink:href="#aF"/><use transform="matrix(0.05,0,0,0.05,12,0)" xlink:href="#aP"/><use transform="matrix(0.05,0,0,0.05,26.950000000000003,0)" xlink:href="#aQ"/><use transform="matrix(0.05,0,0,0.05,36.95,0)" xlink:href="#aR"/><use transform="matrix(0.05,0,0,0.05,45.95,0)" xlink:href="#aJ"/><use transform="matrix(0.05,0,0,0.05,55.95,0)" xlink:href="#aS"/></g><path d="M30 0v-248h187v28H63v79h144v27H63v87h162V0H30" id="aT"/><path d="M212-179c-10-28-35-45-73-45-59 0-87 40-87 99 0 60 29 101 89 101 43 0 62-24 78-52l27 14C228-24 195 4 139 4 59 4 22-46 18-125c-6-104 99-153 187-111 19 9 31 26 39 46" id="aU"/><path d="M185-189c-5-48-123-54-124 2 14 75 158 14 163 119 3 78-121 87-175 55-17-10-28-26-33-46l33-7c5 56 141 63 141-1 0-78-155-14-162-118-5-82 145-84 179-34 5 7 8 16 11 25" id="aV"/><g id="G"><use transform="matrix(0.05,0,0,0.05,0,0)" xlink:href="#aT"/><use transform="matrix(0.05,0,0,0.05,12,0)" xlink:href="#aU"/><use transform="matrix(0.05,0,0,0.05,24.950000000000003,0)" xlink:href="#aV"/></g><path d="M24-231v-30h32v30H24zM24 0v-190h32V0H24" id="aW"/><path d="M114-163C36-179 61-72 57 0H25l-1-190h30c1 12-1 29 2 39 6-27 23-49 58-41v29" id="aX"/><g id="H"><use transform="matrix(0.05,0,0,0.05,0,0)" xlink:href="#aU"/><use transform="matrix(0.05,0,0,0.05,12.950000000000001,0)" xlink:href="#aJ"/><use transform="matrix(0.05,0,0,0.05,22.950000000000003,0)" xlink:href="#aS"/><use transform="matrix(0.05,0,0,0.05,32.95,0)" xlink:href="#aL"/><use transform="matrix(0.05,0,0,0.05,37.95,0)" xlink:href="#aQ"/><use transform="matrix(0.05,0,0,0.05,47.95,0)" xlink:href="#aW"/><use transform="matrix(0.05,0,0,0.05,51.900000000000006,0)" xlink:href="#aS"/><use transform="matrix(0.05,0,0,0.05,61.900000000000006,0)" xlink:href="#aM"/><use transform="matrix(0.05,0,0,0.05,71.9,0)" xlink:href="#aX"/></g><path d="M108 0H70L1-190h34L89-25l56-165h34" id="aY"/><path d="M96-169c-40 0-48 33-48 73s9 75 48 75c24 0 41-14 43-38l32 2c-6 37-31 61-74 61-59 0-76-41-82-99-10-93 101-131 147-64 4 7 5 14 7 22l-32 3c-4-21-16-35-41-35" id="aZ"/><path d="M135-143c-3-34-86-38-87 0 15 53 115 12 119 90S17 21 10-45l28-5c4 36 97 45 98 0-10-56-113-15-118-90-4-57 82-63 122-42 12 7 21 19 24 35" id="ba"/><g id="I"><use transform="matrix(0.05,0,0,0.05,0,0)" xlink:href="#aV"/><use transform="matrix(0.05,0,0,0.05,12,0)" xlink:href="#aM"/><use transform="matrix(0.05,0,0,0.05,22,0)" xlink:href="#aX"/><use transform="matrix(0.05,0,0,0.05,27.950000000000003,0)" xlink:href="#aY"/><use transform="matrix(0.05,0,0,0.05,36.95,0)" xlink:href="#aW"/><use transform="matrix(0.05,0,0,0.05,40.900000000000006,0)" xlink:href="#aZ"/><use transform="matrix(0.05,0,0,0.05,49.900000000000006,0)" xlink:href="#aM"/><use transform="matrix(0.05,0,0,0.05,59.900000000000006,0)" xlink:href="#ba"/></g><g id="J"><use transform="matrix(0.05,0,0,0.05,0,0)" xlink:href="#aF"/><use transform="matrix(0.05,0,0,0.05,12,0)" xlink:href="#aP"/><use transform="matrix(0.05,0,0,0.05,26.950000000000003,0)" xlink:href="#aQ"/><use transform="matrix(0.05,0,0,0.05,36.95,0)" xlink:href="#aR"/><use transform="matrix(0.05,0,0,0.05,45.95,0)" xlink:href="#aJ"/><use transform="matrix(0.05,0,0,0.05,55.95,0)" xlink:href="#aS"/></g><path d="M30-248c118-7 216 8 213 122C240-48 200 0 122 0H30v-248zM63-27c89 8 146-16 146-99s-60-101-146-95v194" id="bb"/><g id="K"><use transform="matrix(0.05,0,0,0.05,0,0)" xlink:href="#aI"/><use transform="matrix(0.05,0,0,0.05,12.950000000000001,0)" xlink:href="#bb"/><use transform="matrix(0.05,0,0,0.05,25.900000000000002,0)" xlink:href="#aV"/></g></defs></g></svg>